<svg width="42" height="42" viewBox="0 0 42 42" fill="none" xmlns="http://www.w3.org/2000/svg">
<path d="M21 41.3423C9.96551 41.3423 1 32.3768 1 21.3423C1 10.3078 9.96551 1.34229 21 1.34229C32.0345 1.34229 41 10.3078 41 21.3423C41 32.3768 32.0345 41.3423 21 41.3423Z" stroke="#505151" stroke-miterlimit="10"/>
<path d="M18.3273 32.0319H22.6377V21.1699H25.6549L25.9997 17.5492H22.6377C22.6377 17.5492 22.6377 16.1699 22.6377 15.4802C22.6377 14.6181 22.8101 14.2733 23.6721 14.2733C24.3618 14.2733 25.9997 14.2733 25.9997 14.2733V10.5664C25.9997 10.5664 23.4997 10.5664 22.9825 10.5664C19.7928 10.5664 18.3273 11.9457 18.3273 14.7043C18.3273 17.0319 18.3273 17.6354 18.3273 17.6354H16.0859V21.3423H18.3273V32.0319Z" fill="#F1F1F1"/>
</svg>
