<svg width="42" height="42" viewBox="0 0 42 42" fill="none" xmlns="http://www.w3.org/2000/svg">
<g id="Group">
<g id="Group_2">
<path id="XMLID_9_" d="M20.998 41.3423C9.96356 41.3423 0.998047 32.3768 0.998047 21.3423C0.998047 10.3078 9.96356 1.34229 20.998 1.34229C32.0325 1.34229 40.998 10.3078 40.998 21.3423C41.0842 32.3768 32.1187 41.3423 20.998 41.3423Z" stroke="#505151" stroke-miterlimit="10"/>
</g>
<g id="XMLID_1_">
<path id="XMLID_6_" d="M20.9992 13.3251C23.5854 13.3251 23.9302 13.3251 24.9647 13.4113C25.913 13.4975 26.4302 13.5837 26.7751 13.7561C27.2061 13.9286 27.5509 14.101 27.8957 14.4458C28.2406 14.7906 28.413 15.1355 28.5854 15.5665C28.7578 15.9113 28.844 16.4286 28.9302 17.3768C29.0164 18.4113 29.0164 18.6699 29.0164 21.3424C29.0164 23.9286 29.0164 24.2734 28.9302 25.3079C28.844 26.2561 28.7578 26.7734 28.5854 27.1182C28.413 27.5493 28.2406 27.8941 27.8957 28.2389C27.5509 28.5837 27.2061 28.7561 26.7751 28.9286C26.4302 29.101 25.913 29.1872 24.9647 29.2734C23.9302 29.3596 23.6716 29.3596 20.9992 29.3596C18.413 29.3596 18.0682 29.3596 17.0337 29.2734C16.0854 29.1872 15.5682 29.101 15.2233 28.9286C14.7923 28.7561 14.4475 28.5837 14.1026 28.2389C13.7578 27.8941 13.5854 27.5493 13.413 27.1182C13.2406 26.7734 13.1544 26.2561 13.0682 25.3079C12.982 24.2734 12.982 24.0148 12.982 21.3424C12.982 18.7562 12.982 18.4113 13.0682 17.3768C13.1544 16.4286 13.2406 15.9113 13.413 15.5665C13.5854 15.1355 13.7578 14.7906 14.1026 14.4458C14.4475 14.101 14.7923 13.9286 15.2233 13.7561C15.5682 13.5837 16.0854 13.4975 17.0337 13.4113C18.1544 13.3251 18.413 13.3251 20.9992 13.3251ZM20.9992 11.5148C18.3268 11.5148 17.982 11.5148 16.9475 11.601C15.913 11.6872 15.2233 11.7734 14.6199 12.032C14.0164 12.2906 13.413 12.6355 12.8957 13.1527C12.3785 13.6699 12.0337 14.2734 11.7751 14.8768C11.5164 15.4803 11.344 16.1699 11.344 17.2044C11.2578 18.2389 11.2578 18.5837 11.2578 21.2562C11.2578 23.9286 11.2578 24.2734 11.344 25.3079C11.4302 26.3424 11.5164 27.032 11.7751 27.6355C12.0337 28.2389 12.3785 28.8424 12.8957 29.3596C13.413 29.8768 14.0164 30.2217 14.6199 30.4803C15.2233 30.7389 15.913 30.9113 16.9475 30.9113C17.982 30.9975 18.3268 30.9975 20.9992 30.9975C23.6716 30.9975 24.0164 30.9975 25.0509 30.9113C26.0854 30.8251 26.7751 30.7389 27.3785 30.4803C27.982 30.2217 28.5854 29.8768 29.1026 29.3596C29.6199 28.8424 29.9647 28.2389 30.2233 27.6355C30.4819 27.032 30.6544 26.3424 30.6544 25.3079C30.7406 24.2734 30.7406 23.9286 30.7406 21.2562C30.7406 18.5837 30.7406 18.2389 30.6544 17.2044C30.5682 16.1699 30.4819 15.4803 30.2233 14.8768C29.9647 14.2734 29.6199 13.6699 29.1026 13.1527C28.5854 12.6355 27.982 12.2906 27.3785 12.032C26.7751 11.7734 26.0854 11.601 25.0509 11.601C24.0164 11.5148 23.6716 11.5148 20.9992 11.5148Z" fill="#F1F1F1"/>
<path id="XMLID_3_" d="M20.998 16.2561C18.2394 16.2561 15.998 18.4975 15.998 21.2561C15.998 24.0147 18.2394 26.2561 20.998 26.2561C23.7567 26.2561 25.998 24.0147 25.998 21.2561C25.998 18.4975 23.8429 16.2561 20.998 16.2561ZM20.998 24.532C19.1877 24.532 17.7222 23.0665 17.7222 21.2561C17.7222 19.4458 19.1877 17.9802 20.998 17.9802C22.8084 17.9802 24.2739 19.4458 24.2739 21.2561C24.2739 23.0665 22.8084 24.532 20.998 24.532Z" fill="#F1F1F1"/>
<path id="XMLID_2_" d="M27.3806 16.0836C27.3806 16.6871 26.8633 17.2905 26.1737 17.2905C25.5702 17.2905 24.9668 16.7733 24.9668 16.0836C24.9668 15.4802 25.484 14.8767 26.1737 14.8767C26.8633 14.8767 27.3806 15.394 27.3806 16.0836Z" fill="#F1F1F1"/>
</g>
</g>
</svg>
