<svg width="42" height="42" viewBox="0 0 42 42" fill="none" xmlns="http://www.w3.org/2000/svg">
<g id="Group">
<g id="Group_2">
<path id="XMLID_17_" d="M20.9981 41.3423C9.96357 41.3423 0.998047 32.3768 0.998047 21.3423C0.998047 10.3078 9.96357 1.34229 20.9981 1.34229C32.0325 1.34229 40.9981 10.3078 40.9981 21.3423C41.0843 32.3768 32.1187 41.3423 20.9981 41.3423Z" stroke="#505151" stroke-miterlimit="10"/>
</g>
<g id="XMLID_12_">
<g id="XMLID_14_">
<path id="XMLID_16_" d="M16.1776 17.3766H12.4707V29.2731H16.1776V17.3766Z" fill="#F1F1F1"/>
<path id="XMLID_15_" d="M14.2821 15.825C15.4724 15.825 16.4373 14.8601 16.4373 13.6698C16.4373 12.4796 15.4724 11.5146 14.2821 11.5146C13.0919 11.5146 12.127 12.4796 12.127 13.6698C12.127 14.8601 13.0919 15.825 14.2821 15.825Z" fill="#F1F1F1"/>
</g>
<path id="XMLID_13_" d="M22.0367 22.98C22.0367 21.3421 22.8126 20.3076 24.2781 20.3076C25.6574 20.3076 26.2608 21.2559 26.2608 22.98C26.2608 24.7042 26.2608 29.1869 26.2608 29.1869H29.8815C29.8815 29.1869 29.8815 24.8766 29.8815 21.6869C29.8815 18.4973 28.0712 16.9456 25.5712 16.9456C23.0712 16.9456 21.9505 18.9283 21.9505 18.9283V17.2904H18.416V29.1869H21.9505C22.0367 29.2731 22.0367 24.8766 22.0367 22.98Z" fill="#F1F1F1"/>
</g>
</g>
</svg>
