<svg width="21" height="21" viewBox="0 0 21 21" fill="none" xmlns="http://www.w3.org/2000/svg">
<g id="Frame" clip-path="url(#clip0_1253_334)">
<g id="Vector">
<path d="M0.4873 1.86647H0.108813V9.40998H0.4873V1.86647Z" fill="white"/>
<path d="M0.4873 19.8671H0.108813V20.2456H0.4873V19.8671Z" fill="white"/>
<path d="M0.4873 19.1091H0.108813V19.4876H0.4873V19.1091Z" fill="white"/>
<path d="M0.4873 19.4876H0.108813V19.8661H0.4873V19.4876Z" fill="white"/>
<path d="M0.4873 18.7306H0.108813V19.1091H0.4873V18.7306Z" fill="white"/>
<path d="M0.4873 10.925H0.108813V18.7306H0.4873V10.925Z" fill="white"/>
<path d="M0.4873 10.5465H0.108813V10.925H0.4873V10.5465Z" fill="white"/>
<path d="M0.4873 10.167H0.108813V10.5454H0.4873V10.167Z" fill="white"/>
<path d="M0.4873 9.78847H0.108813V10.167H0.4873V9.78847Z" fill="white"/>
<path d="M0.4873 9.40998H0.108813V9.78847H0.4873V9.40998Z" fill="white"/>
<path d="M0.391892 0.729957H0.108813V0.446879L0.391892 0.729957Z" fill="white"/>
<path d="M0.4873 1.36112V1.48798H0.108813V1.10844H0.234626L0.4873 1.36112Z" fill="white"/>
<path d="M0.234626 1.10844H0.108813V0.982631L0.234626 1.10844Z" fill="white"/>
<path d="M1.62381 2.49763V9.40998H1.24427V2.11809L1.62381 2.49763Z" fill="white"/>
<path d="M1.24427 2.11809V9.40998H0.865784V1.86647H0.992645L1.24427 2.11809Z" fill="white"/>
<path d="M7.6387 9.68135V10.5788H7.26022V9.30286L7.6387 9.68135Z" fill="white"/>
<path d="M8.01718 10.0598V10.5788L7.6387 10.5788V9.68135L8.01718 10.0598Z" fill="white"/>
<path d="M1.24427 9.78847H0.865784V10.167H1.24427V9.78847Z" fill="white"/>
<path d="M1.24427 10.167H0.865784V10.5454H1.24427V10.167Z" fill="white"/>
<path d="M1.24427 10.5465H0.865784V10.925H1.24427V10.5465Z" fill="white"/>
<path d="M1.24427 18.7306H0.865784V19.1091H1.24427V18.7306Z" fill="white"/>
<path d="M1.24427 19.1091H0.865784V19.4876H1.24427V19.1091Z" fill="white"/>
<path d="M1.62276 9.78847H1.24427V10.167H1.62276V9.78847Z" fill="white"/>
<path d="M1.62276 9.40998H1.24427L1.24427 9.78847H1.62276V9.40998Z" fill="white"/>
<path d="M1.62276 10.5465H1.24427V10.925H1.62276V10.5465Z" fill="white"/>
<path d="M1.62276 10.167H1.24427V10.5454H1.62276V10.167Z" fill="white"/>
<path d="M1.62276 10.925H1.24427V18.7306L1.62276 18.7306V10.925Z" fill="white"/>
<path d="M1.62276 18.7306L1.24427 18.7306V19.1091H1.62276V18.7306Z" fill="white"/>
<path d="M19.6538 0.668099V0.729957H19.5919L19.6538 0.668099Z" fill="white"/>
<path d="M19.2753 1.86647V2.11809L18.8968 2.49763V1.96187L18.9912 1.86647H19.2753Z" fill="white"/>
<path d="M8.01718 1.26886V5.6221L7.6387 5.24361V1.02771H7.77604L8.01718 1.26886Z" fill="white"/>
<path d="M13.1157 6.13571L12.8484 6.40306L8.39672 1.95139V1.86647H8.84754L13.1157 6.13571Z" fill="white"/>
<path d="M18.8968 1.86647V1.96187L14.4546 6.40306L14.1872 6.13466L18.4565 1.86647H18.8968Z" fill="white"/>
<path d="M14.1864 6.13537L13.9187 6.403L14.1864 6.67062L14.454 6.403L14.1864 6.13537Z" fill="white"/>
<path d="M13.9193 6.40318L13.6516 6.6708L13.9193 6.93843L14.1869 6.6708L13.9193 6.40318Z" fill="white"/>
<path d="M13.6507 6.67116L13.3831 6.93878L13.6507 7.20641L13.9184 6.93878L13.6507 6.67116Z" fill="white"/>
<path d="M13.3836 6.40333L13.116 6.67096L13.3836 6.93859L13.6512 6.67096L13.3836 6.40333Z" fill="white"/>
<path d="M13.1157 6.1348L12.848 6.40243L13.1157 6.67006L13.3833 6.40243L13.1157 6.1348Z" fill="white"/>
<path d="M19.6538 19.4876V19.8671H19.528L19.2753 19.6134V19.4876H19.6538Z" fill="white"/>
<path d="M19.6538 1.86647V9.40998H19.2753L19.2753 2.11809L19.5269 1.86647H19.6538Z" fill="white"/>
<path d="M19.2753 2.11809L19.2753 9.40998H18.8968V2.49763L19.2753 2.11809Z" fill="white"/>
<path d="M19.2753 10.925V18.0061L18.8968 17.6276V10.925H19.2753Z" fill="white"/>
<path d="M20.4118 0.446879V0.729957H20.1277L20.4118 0.446879Z" fill="white"/>
<path d="M20.4108 1.86647H20.0323V9.40998H20.4108V1.86647Z" fill="white"/>
<path d="M20.4108 1.48798H20.0323V1.86647H20.4108V1.48798Z" fill="white"/>
<path d="M20.4118 1.10844V1.48798L20.0323 1.48798V1.36112L20.2849 1.10844H20.4118Z" fill="white"/>
<path d="M20.4118 0.982631V1.10844H20.2849L20.4118 0.982631Z" fill="white"/>
<path d="M20.4118 19.8671V20.2141L20.0637 19.8671H20.4118Z" fill="white"/>
<path d="M20.4118 18.7306V19.1091H20.3772L20.0323 18.7641V18.7306H20.4118Z" fill="white"/>
<path d="M20.4108 10.925H20.0323V18.7306L20.4108 18.7306V10.925Z" fill="white"/>
<path d="M19.2753 10.5465H18.8968V10.925H19.2753V10.5465Z" fill="white"/>
<path d="M19.2753 10.167H18.8968V10.5454H19.2753V10.167Z" fill="white"/>
<path d="M19.2753 9.78847H18.8968V10.167H19.2753V9.78847Z" fill="white"/>
<path d="M19.2753 9.40998H18.8968V9.78847H19.2753L19.2753 9.40998Z" fill="white"/>
<path d="M20.4108 9.40998H20.0323V9.78847H20.4108V9.40998Z" fill="white"/>
<path d="M20.4108 9.78847H20.0323V10.167H20.4108V9.78847Z" fill="white"/>
<path d="M20.4108 10.167H20.0323V10.5454H20.4108V10.167Z" fill="white"/>
<path d="M20.4108 10.5465H20.0323V10.925H20.4108V10.5465Z" fill="white"/>
<path d="M20.4118 19.4876V19.6784L20.221 19.4876H20.4118Z" fill="white"/>
<path d="M7.26021 10.95H6.88173V11.5368H7.26021V10.95Z" fill="white"/>
<path d="M7.26022 9.30286V10.5788H6.88173V8.92438L7.26022 9.30286Z" fill="white"/>
<path d="M7.26021 9.81345H6.88173V10.1919H7.26021V9.81345Z" fill="white"/>
<path d="M7.26021 10.1919H6.88173V10.5704H7.26021V10.1919Z" fill="white"/>
<path d="M7.26021 10.5704H6.88173V10.9489H7.26021V10.5704Z" fill="white"/>
<path d="M8.29566 18.7306H7.91717V19.1091H8.29566V18.7306Z" fill="white"/>
<path d="M8.39672 10.4394V10.5788L8.01718 10.5788V10.0598L8.39672 10.4394Z" fill="white"/>
<path d="M7.28256 11.3455H6.88256V20.2421H7.28256V11.3455Z" fill="white"/>
<path d="M8.27013 11.1622H7.02013V20.1337H8.27013V11.1622Z" fill="white"/>
<path d="M7.67422 11.3455H7.27422V20.2421H7.67422V11.3455Z" fill="white"/>
<path d="M6.88172 19.1091H1.6238V19.4876H6.88172V19.1091Z" fill="white"/>
<path d="M6.88172 18.7306H1.6238V19.1091H6.88172V18.7306Z" fill="white"/>
<path d="M7.26021 18.7306H6.88172V19.1091H7.26021V18.7306Z" fill="white"/>
<path d="M7.26021 19.1091H6.88172V19.4876H7.26021V19.1091Z" fill="white"/>
<path d="M19.6538 19.4561V19.4876H19.2753V19.1091H19.3068L19.6538 19.4561Z" fill="white"/>
<path d="M19.6538 18.3857V18.7306H19.463L19.2753 18.5419L19.2753 18.0061L19.6538 18.3857Z" fill="white"/>
<path d="M19.9987 18.7306H19.6538V18.3857L19.9987 18.7306Z" fill="white"/>
<path d="M19.6538 18.9204V19.1091H19.3068L19.2753 19.0776V18.7306L19.463 18.7306L19.6538 18.9204Z" fill="white"/>
<path d="M0.865791 19.8671H0.4873V20.2456H0.865784L0.865791 19.8671Z" fill="white"/>
<path d="M6.88172 19.4876H1.6238V19.8661H6.88172V19.4876Z" fill="white"/>
<path d="M6.88172 19.8671H1.6238V20.2456H6.88172V19.8671Z" fill="white"/>
<path d="M7.6387 18.7306H7.26021L7.26022 19.8671H7.6387V18.7306Z" fill="white"/>
<path d="M7.6387 19.8671H7.26022V20.2456H7.6387V19.8671Z" fill="white"/>
<path d="M7.26021 19.4876H6.88172V19.8661H7.26021V19.4876Z" fill="white"/>
<path d="M7.26022 19.8671H6.88172V20.2456H7.26022V19.8671Z" fill="white"/>
<path d="M8.01718 19.8671H7.6387V20.2456H8.01718V19.8671Z" fill="white"/>
<path d="M8.39714 11.1372H8.01797V20.2476H8.39714V11.1372Z" fill="white"/>
<path d="M8.39567 10.95H8.01719V11.3284H8.39567V10.95Z" fill="white"/>
<path d="M8.29566 19.4876H7.91717V19.8661H8.29566V19.4876Z" fill="white"/>
<path d="M8.29566 19.8671H7.91717V20.2456H8.29566V19.8671Z" fill="white"/>
<path d="M20.0323 19.8671V20.2456H19.9075L19.6538 19.9919L19.6538 19.8671H20.0323Z" fill="white"/>
<path d="M19.9075 20.2456L19.6538 20.2456V19.9919L19.9075 20.2456Z" fill="white"/>
<path d="M18.8968 18.6991V18.7306H18.3925L10.5869 10.925H11.1227L18.8968 18.6991Z" fill="white"/>
<path d="M18.8968 18.7306L18.8968 19.1091H18.771L18.3925 18.7306H18.8968Z" fill="white"/>
<path d="M19.2753 19.0776V19.1091H18.8968L18.8968 18.7306L18.9283 18.7306L19.2753 19.0776Z" fill="white"/>
<path d="M19.2753 19.1091V19.4876H19.1495L18.8968 19.2349L18.8968 19.1091H19.2753Z" fill="white"/>
<path d="M19.2753 19.4876V19.6134L19.1495 19.4876H19.2753Z" fill="white"/>
<path d="M18.8968 19.1091L18.8968 19.2349L18.771 19.1091H18.8968Z" fill="white"/>
<path d="M1.62276 19.1091H1.24427V19.4876H1.62276V19.1091Z" fill="white"/>
<path d="M1.62276 19.4876H1.24427L1.24427 19.8661H1.62276V19.4876Z" fill="white"/>
<path d="M1.62276 19.8671H1.24427V20.2456H1.62276V19.8671Z" fill="white"/>
<path d="M0.865784 19.1091H0.4873V19.4876H0.865784V19.1091Z" fill="white"/>
<path d="M0.865784 19.4876H0.4873V19.8661H0.865791L0.865784 19.4876Z" fill="white"/>
<path d="M1.24427 19.4876H0.865784L0.865791 19.8661H1.24427L1.24427 19.4876Z" fill="white"/>
<path d="M1.24427 19.8671H0.865791L0.865784 20.2456H1.24427V19.8671Z" fill="white"/>
<path d="M7.6387 10.5704H7.26021V10.9489H7.6387V10.5704Z" fill="white"/>
<path d="M7.6387 10.95H7.26021L7.26022 11.3284H7.6387V10.95Z" fill="white"/>
<path d="M8.01719 10.95H7.6387V11.3284H8.01719V10.95Z" fill="white"/>
<path d="M8.01718 10.5704H7.6387V10.9489H8.01718V10.5704Z" fill="white"/>
<path d="M7.6387 10.1919H7.26021V10.5704H7.6387V10.1919Z" fill="white"/>
<path d="M7.6387 9.81345H7.26021V10.1919H7.6387V9.81345Z" fill="white"/>
<path d="M8.01718 10.1919H7.6387V10.5704H8.01718V10.1919Z" fill="white"/>
<path d="M0.865784 18.7306H0.4873V19.1091H0.865784V18.7306Z" fill="white"/>
<path d="M0.865784 10.167L0.4873 10.167V10.5454H0.865784V10.167Z" fill="white"/>
<path d="M0.865784 10.5465H0.4873V10.925H0.865784V10.5465Z" fill="white"/>
<path d="M0.865784 10.925H0.4873V18.7306H0.865784V10.925Z" fill="white"/>
<path d="M1.24427 10.925H0.865784V18.7306H1.24427V10.925Z" fill="white"/>
<path d="M11.1227 10.925H10.5869L10.2074 10.5465H10.7431L11.1227 10.925Z" fill="white"/>
<path d="M8.39567 10.5704H8.01718V10.9489H8.39567V10.5704Z" fill="white"/>
<path d="M0.927641 0.729957H0.865784V0.668099L0.927641 0.729957Z" fill="white"/>
<path d="M1.62381 0.354616V0.729957H1.4634L1.24427 0.511882V0.351471H1.61962L1.62381 0.354616Z" fill="white"/>
<path d="M1.24427 0.351471V0.511882L1.08386 0.351471H1.24427Z" fill="white"/>
<path d="M0.865785 0.351471L0.865784 0.668099L0.548108 0.351471H0.865785Z" fill="white"/>
<path d="M7.71104 0.729957H7.6387V0.657615L7.71104 0.729957Z" fill="white"/>
<path d="M8.39672 0.351471V0.729957H8.2468L8.01719 0.501398V0.351471H8.39672Z" fill="white"/>
<path d="M8.01719 0.351471V0.501398L7.86726 0.351471H8.01719Z" fill="white"/>
<path d="M19.4357 0.351471L19.2753 0.511882V0.351471H19.4357Z" fill="white"/>
<path d="M19.9715 0.351471L19.6538 0.668099L19.6538 0.351471H19.9715Z" fill="white"/>
<path d="M7.6387 0.351471L7.6387 0.657615L7.33256 0.351471H7.6387Z" fill="white"/>
<path d="M19.6538 1.20385V1.48798H19.3707L19.6538 1.20385Z" fill="white"/>
<path d="M20.0323 1.10844L20.0323 1.36112L19.9054 1.48798L19.6538 1.48798V1.20385L19.7492 1.10844H20.0323Z" fill="white"/>
<path d="M0.865791 1.20385V1.48798H0.614166L0.4873 1.36112L0.487305 1.10844H0.770383L0.865791 1.20385Z" fill="white"/>
<path d="M7.26021 1.48798H6.88173V1.86646H7.26021V1.48798Z" fill="white"/>
<path d="M7.01802 1.10844H6.88173V0.972146L7.01802 1.10844Z" fill="white"/>
<path d="M1.24427 1.10844V1.48798H1.14886L0.865791 1.20385L0.865784 1.10844H1.24427Z" fill="white"/>
<path d="M1.24427 1.04763V1.10844H0.865784V0.729957H0.927641L1.24427 1.04763Z" fill="white"/>
<path d="M1.62381 1.42612V1.48798H1.24427V1.10844H1.30613L1.62381 1.42612Z" fill="white"/>
<path d="M8.01718 1.57185V1.86646H7.77604L7.6387 1.72912V1.48798H7.93226L8.01718 1.57185Z" fill="white"/>
<path d="M7.6387 1.19337L7.6387 1.48798L7.39756 1.48798L7.26022 1.35063V1.10844H7.55378L7.6387 1.19337Z" fill="white"/>
<path d="M7.55378 1.10844H7.26022V0.814881L7.55378 1.10844Z" fill="white"/>
<path d="M7.6387 1.72912L7.6387 1.86646H7.26021V1.48798L7.39756 1.48798L7.6387 1.72912Z" fill="white"/>
<path d="M7.39756 1.48798L7.26021 1.48798L7.26022 1.35063L7.39756 1.48798Z" fill="white"/>
<path d="M7.77604 1.86646H7.6387L7.6387 1.72912L7.77604 1.86646Z" fill="white"/>
<path d="M1.30613 1.10844H1.24427V1.04763L1.30613 1.10844Z" fill="white"/>
<path d="M8.39672 1.41564V1.48798H8.01719V1.10844H8.08953L8.39672 1.41564Z" fill="white"/>
<path d="M8.39672 1.48798L8.39672 1.86647L8.3118 1.86646L8.01718 1.57185L8.01719 1.48798H8.39672Z" fill="white"/>
<path d="M8.01718 1.03715L8.01719 1.10844L7.6387 1.10844V0.729957H7.71104L8.01718 1.03715Z" fill="white"/>
<path d="M19.2753 1.48798V1.58339L18.9912 1.86647H18.8968V1.48798H19.2753Z" fill="white"/>
<path d="M19.2753 1.10844V1.48798H18.8968V1.42612L19.2135 1.10844H19.2753Z" fill="white"/>
<path d="M18.8968 1.48798V1.86647H18.4565L18.835 1.48798H18.8968Z" fill="white"/>
<path d="M18.9912 1.86647L18.8968 1.96187V1.86647H18.9912Z" fill="white"/>
<path d="M18.8968 1.42612V1.48798H18.835L18.8968 1.42612Z" fill="white"/>
<path d="M19.2753 1.04763L19.2753 1.10844H19.2135L19.2753 1.04763Z" fill="white"/>
<path d="M8.3118 1.86646H8.01718V1.57185L8.3118 1.86646Z" fill="white"/>
<path d="M8.39672 1.86647V1.95139L8.3118 1.86646L8.39672 1.86647Z" fill="white"/>
<path d="M8.08953 1.10844H8.01719L8.01718 1.03715L8.08953 1.10844Z" fill="white"/>
<path d="M13.6506 5.59976L13.3829 5.86738L13.6506 6.13501L13.9182 5.86738L13.6506 5.59976Z" fill="white"/>
<path d="M7.6387 7.44101V7.97676L7.26022 7.59828V7.06253L7.6387 7.44101Z" fill="white"/>
<path d="M8.39672 7.12753V7.66328L8.01719 7.2848V6.74904L8.39672 7.12753Z" fill="white"/>
<path d="M8.01719 6.74904V7.2848L7.6387 6.90526V6.37056L8.01719 6.74904Z" fill="white"/>
<path d="M7.6387 6.37056V6.90526L7.26022 6.52677V5.99102L7.6387 6.37056Z" fill="white"/>
<path d="M7.26022 5.99102V6.52677L6.88173 6.14829V5.61254L7.26022 5.99102Z" fill="white"/>
<path d="M1.24427 9.40998H0.865784V9.78847H1.24427L1.24427 9.40998Z" fill="white"/>
<path d="M0.865784 9.78847H0.4873V10.167L0.865784 10.167V9.78847Z" fill="white"/>
<path d="M0.865784 9.40998L0.4873 9.40998V9.78847H0.865784V9.40998Z" fill="white"/>
<path d="M0.865784 1.86647H0.4873V9.40998L0.865784 9.40998V1.86647Z" fill="white"/>
<path d="M7.6387 1.02771V5.24361L7.26022 4.86408V1.02771H7.6387Z" fill="white"/>
<path d="M17.9207 1.86647L13.9188 5.86731L13.6515 5.59996L17.385 1.86647H17.9207Z" fill="white"/>
<path d="M20.0323 9.78847H19.6538V10.167H20.0323V9.78847Z" fill="white"/>
<path d="M20.0323 9.40998L19.6538 9.40998L19.6538 9.78847H20.0323V9.40998Z" fill="white"/>
<path d="M20.0323 1.86647H19.6538V9.40998L20.0323 9.40998V1.86647Z" fill="white"/>
<path d="M8.84754 1.86647H8.39672L8.39672 1.48798L8.46801 1.48798L8.84754 1.86647Z" fill="white"/>
<path d="M8.46801 1.48798L8.39672 1.48798V1.41564L8.46801 1.48798Z" fill="white"/>
<path d="M13.6515 5.59996L13.3841 5.86731L9.38225 1.86647H9.918L13.6515 5.59996Z" fill="white"/>
<path d="M9.53952 1.48798H9.00377L8.62528 1.10844H9.16103L9.53952 1.48798Z" fill="white"/>
<path d="M9.918 1.86647H9.38225L9.00377 1.48798H9.53952L9.918 1.86647Z" fill="white"/>
<path d="M9.16103 1.10844H8.62528L8.39672 0.879884L8.39672 0.729957L8.78254 0.729957L9.16103 1.10844Z" fill="white"/>
<path d="M8.78254 0.729957L8.39672 0.729957V0.351471H8.40301L8.78254 0.729957Z" fill="white"/>
<path d="M7.26021 0.351471V0.729957H7.17529L6.88173 0.436394V0.351471H7.26021Z" fill="white"/>
<path d="M7.17529 0.729957L6.88173 0.729957V0.436394L7.17529 0.729957Z" fill="white"/>
<path d="M7.26021 0.729957L7.26022 0.814881L7.17529 0.729957H7.26021Z" fill="white"/>
<path d="M7.26022 0.814881V1.10844H7.01802L6.88173 0.972146V0.729957L7.17529 0.729957L7.26022 0.814881Z" fill="white"/>
<path d="M8.01719 1.10844V1.48798L7.93226 1.48798L7.6387 1.19337L7.6387 1.10844L8.01719 1.10844Z" fill="white"/>
<path d="M7.6387 0.657615V0.729957L7.26021 0.729957V0.351471H7.33256L7.6387 0.657615Z" fill="white"/>
<path d="M7.6387 0.729957V1.10844L7.55378 1.10844L7.26022 0.814881L7.26021 0.729957L7.6387 0.729957Z" fill="white"/>
<path d="M7.93226 1.48798H7.6387L7.6387 1.19337L7.93226 1.48798Z" fill="white"/>
<path d="M7.6387 1.48798V1.72912L7.39756 1.48798L7.6387 1.48798Z" fill="white"/>
<path d="M8.01718 1.86646L8.01718 2.10761L7.77604 1.86646H8.01718Z" fill="white"/>
<path d="M8.01719 1.48798L8.01718 1.57185L7.93226 1.48798L8.01719 1.48798Z" fill="white"/>
<path d="M7.6387 1.10844L7.6387 1.19337L7.55378 1.10844L7.6387 1.10844Z" fill="white"/>
<path d="M8.01718 0.729957L8.01718 1.03715L7.71104 0.729957L8.01718 0.729957Z" fill="white"/>
<path d="M8.39672 1.10844L8.39672 1.41564L8.08953 1.10844H8.39672Z" fill="white"/>
<path d="M8.01719 0.501398L8.01718 0.729957L7.71104 0.729957L7.6387 0.657615L7.6387 0.351471H7.86726L8.01719 0.501398Z" fill="white"/>
<path d="M8.39672 0.729957L8.39672 0.879884L8.2468 0.729957H8.39672Z" fill="white"/>
<path d="M8.39672 0.879884L8.39672 1.10844H8.08953L8.01718 1.03715L8.01718 0.729957L8.2468 0.729957L8.39672 0.879884Z" fill="white"/>
<path d="M13.3841 5.86731L13.1157 6.13571L8.84754 1.86647H9.38225L13.3841 5.86731Z" fill="white"/>
<path d="M9.00377 1.48798L8.46801 1.48798L8.39672 1.41564L8.39672 1.10844H8.62528L9.00377 1.48798Z" fill="white"/>
<path d="M9.38225 1.86647H8.84754L8.46801 1.48798L9.00377 1.48798L9.38225 1.86647Z" fill="white"/>
<path d="M8.62528 1.10844H8.39672L8.39672 0.879884L8.62528 1.10844Z" fill="white"/>
<path d="M8.2468 0.729957L8.01718 0.729957L8.01719 0.501398L8.2468 0.729957Z" fill="white"/>
<path d="M13.6506 6.13537L13.383 6.403L13.6506 6.67063L13.9183 6.403L13.6506 6.13537Z" fill="white"/>
<path d="M12.8484 6.40306L12.58 6.67041L8.39672 2.48714V1.95139L12.8484 6.40306Z" fill="white"/>
<path d="M8.39672 1.95139V2.48714L8.01718 2.10761L8.01718 1.86646H8.3118L8.39672 1.95139Z" fill="white"/>
<path d="M7.26022 1.10844V1.35063L7.01802 1.10844H7.26022Z" fill="white"/>
<path d="M7.26022 1.35063L7.26021 1.48798H6.88173V1.10844H7.01802L7.26022 1.35063Z" fill="white"/>
<path d="M18.2992 1.48798L17.9207 1.86647H17.385L17.7635 1.48798H18.2992Z" fill="white"/>
<path d="M18.6777 1.10844L18.2992 1.48798H17.7635L18.1419 1.10844H18.6777Z" fill="white"/>
<path d="M18.8968 0.729957V0.890368L18.6777 1.10844H18.1419L18.5204 0.729957H18.8968Z" fill="white"/>
<path d="M19.2753 0.351471V0.511882L19.0562 0.729957L18.8968 0.729957L18.8968 0.354616L18.9 0.351471H19.2753Z" fill="white"/>
<path d="M18.8968 0.354616L18.8968 0.729957H18.5204L18.8968 0.354616Z" fill="white"/>
<path d="M12.8479 6.40347L12.5803 6.6711L12.8479 6.93873L13.1155 6.6711L12.8479 6.40347Z" fill="white"/>
<path d="M20.4118 0.351471L20.4118 0.446879L20.1277 0.729957L20.0323 0.729957V0.351471H20.4118Z" fill="white"/>
<path d="M20.0323 0.729957L20.0323 0.825365L19.7492 1.10844L19.6538 1.10844L19.6538 0.729957L20.0323 0.729957Z" fill="white"/>
<path d="M19.7492 1.10844L19.6538 1.20385L19.6538 1.10844L19.7492 1.10844Z" fill="white"/>
<path d="M19.6538 1.10844L19.6538 1.20385L19.3707 1.48798L19.2753 1.48798V1.10844L19.6538 1.10844Z" fill="white"/>
<path d="M19.2135 1.10844L18.8968 1.42612V1.10844H19.2135Z" fill="white"/>
<path d="M20.0323 0.351471V0.729957L19.6538 0.729957V0.668099L19.9715 0.351471H20.0323Z" fill="white"/>
<path d="M19.6538 0.729957L19.6538 1.10844L19.2753 1.10844L19.2753 1.04763L19.5919 0.729957H19.6538Z" fill="white"/>
<path d="M19.5919 0.729957L19.2753 1.04763L19.2753 0.729957L19.5919 0.729957Z" fill="white"/>
<path d="M13.3837 6.93907L13.1161 7.2067L13.3837 7.47433L13.6513 7.2067L13.3837 6.93907Z" fill="white"/>
<path d="M13.3835 5.86759L13.1158 6.13521L13.3835 6.40284L13.6511 6.13521L13.3835 5.86759Z" fill="white"/>
<path d="M18.4565 1.86647L14.1872 6.13466L13.9188 5.86731L17.9207 1.86647H18.4565Z" fill="white"/>
<path d="M13.9192 5.86753L13.6516 6.13516L13.9192 6.40278L14.1868 6.13516L13.9192 5.86753Z" fill="white"/>
<path d="M18.835 1.48798L18.4565 1.86647H17.9207L18.2992 1.48798H18.835Z" fill="white"/>
<path d="M18.8968 1.10844V1.42612L18.835 1.48798H18.2992L18.6777 1.10844H18.8968Z" fill="white"/>
<path d="M19.0562 0.729957L18.8968 0.890368V0.729957L19.0562 0.729957Z" fill="white"/>
<path d="M19.2753 0.729957L19.2753 1.04763L19.2135 1.10844H18.8968L18.8968 0.890368L19.0562 0.729957L19.2753 0.729957Z" fill="white"/>
<path d="M18.8968 0.890368L18.8968 1.10844H18.6777L18.8968 0.890368Z" fill="white"/>
<path d="M19.6538 0.351471L19.6538 0.668099L19.5919 0.729957L19.2753 0.729957V0.511882L19.4357 0.351471H19.6538Z" fill="white"/>
<path d="M19.2753 0.511882V0.729957L19.0562 0.729957L19.2753 0.511882Z" fill="white"/>
<path d="M13.1158 6.67049L12.8482 6.93812L13.1158 7.20575L13.3834 6.93812L13.1158 6.67049Z" fill="white"/>
<path d="M20.2849 1.10844L20.0323 1.36112L20.0323 1.10844H20.2849Z" fill="white"/>
<path d="M20.1277 0.729957L20.0323 0.825365L20.0323 0.729957L20.1277 0.729957Z" fill="white"/>
<path d="M20.0323 0.825365V1.10844H19.7492L20.0323 0.825365Z" fill="white"/>
<path d="M20.4118 0.729957L20.4118 0.982631L20.2849 1.10844H20.0323V0.825365L20.1277 0.729957H20.4118Z" fill="white"/>
<path d="M18.8968 1.96187V2.49763L14.723 6.67041L14.4546 6.40306L18.8968 1.96187Z" fill="white"/>
<path d="M13.6509 7.2069L13.3832 7.47452L13.6509 7.74215L13.9185 7.47452L13.6509 7.2069Z" fill="white"/>
<path d="M13.9194 6.93896L13.6517 7.20659L13.9194 7.47422L14.187 7.20659L13.9194 6.93896Z" fill="white"/>
<path d="M14.1864 6.67102L13.9188 6.93864L14.1864 7.20627L14.4541 6.93864L14.1864 6.67102Z" fill="white"/>
<path d="M14.455 6.40319L14.1874 6.67082L14.455 6.93845L14.7226 6.67082L14.455 6.40319Z" fill="white"/>
<path d="M20.0323 1.36112V1.48798L19.9054 1.48798L20.0323 1.36112Z" fill="white"/>
<path d="M20.0323 1.48798V1.86647H19.6538L19.6538 1.7396L19.9054 1.48798L20.0323 1.48798Z" fill="white"/>
<path d="M19.5269 1.86647L19.2753 2.11809V1.86647H19.5269Z" fill="white"/>
<path d="M19.2753 1.58339V1.86647H18.9912L19.2753 1.58339Z" fill="white"/>
<path d="M19.9054 1.48798L19.6538 1.7396L19.6538 1.48798L19.9054 1.48798Z" fill="white"/>
<path d="M19.3707 1.48798L19.2753 1.58339V1.48798L19.3707 1.48798Z" fill="white"/>
<path d="M19.6538 1.7396L19.6538 1.86647H19.5269L19.6538 1.7396Z" fill="white"/>
<path d="M19.6538 1.48798L19.6538 1.7396L19.5269 1.86647H19.2753V1.58339L19.3707 1.48798H19.6538Z" fill="white"/>
<path d="M8.39672 1.64839V6.00058L8.01718 5.6221V1.26886L8.39672 1.64839Z" fill="white"/>
<path d="M7.26022 1.02771V4.86408L6.88173 4.48559V1.02771H7.26022Z" fill="white"/>
<path d="M1.68461 1.48798L1.62381 1.48798V1.42612L1.68461 1.48798Z" fill="white"/>
<path d="M6.88173 5.61254V6.14829L2.59885 1.86647H3.1346L6.88173 5.61254Z" fill="white"/>
<path d="M3.1346 1.86647H2.59885L2.22037 1.48798H2.75613L3.1346 1.86647Z" fill="white"/>
<path d="M2.75613 1.48798H2.22037L1.84188 1.10844H2.37763L2.75613 1.48798Z" fill="white"/>
<path d="M2.37763 1.10844H1.84188L1.6238 0.890368L1.62381 0.729957L1.9981 0.729957L2.37763 1.10844Z" fill="white"/>
<path d="M1.9981 0.729957L1.62381 0.729957V0.354616L1.9981 0.729957Z" fill="white"/>
<path d="M8.39672 7.66328V8.19903L8.01719 7.82055V7.2848L8.39672 7.66328Z" fill="white"/>
<path d="M8.01719 7.2848V7.82055L7.6387 7.44101L7.6387 6.90526L8.01719 7.2848Z" fill="white"/>
<path d="M20.3772 19.1091L20.0323 19.1091V18.7641L20.3772 19.1091Z" fill="white"/>
<path d="M20.4118 19.1426L20.4118 19.4876H20.221L20.0323 19.2999V19.1091L20.3772 19.1091L20.4118 19.1426Z" fill="white"/>
<path d="M19.2753 18.0061L19.2753 18.5419L18.8968 18.1634V17.6276L19.2753 18.0061Z" fill="white"/>
<path d="M8.01719 7.82055L8.01718 8.35525L7.6387 7.97676V7.44101L8.01719 7.82055Z" fill="white"/>
<path d="M8.39672 8.19903V8.73479L8.01718 8.35525L8.01719 7.82055L8.39672 8.19903Z" fill="white"/>
<path d="M9.60661 9.40998H9.07191L8.39672 8.73479V8.19903L9.60661 9.40998Z" fill="white"/>
<path d="M10.7431 10.5465H10.2074L9.82888 10.167H10.3646L10.7431 10.5465Z" fill="white"/>
<path d="M10.3646 10.167H9.82888L9.4504 9.78847H9.98615L10.3646 10.167Z" fill="white"/>
<path d="M9.98615 9.78847H9.4504L9.07191 9.40998H9.60661L9.98615 9.78847Z" fill="white"/>
<path d="M10.6781 9.40998H10.1424L8.39672 7.66328V7.12753L10.6781 9.40998Z" fill="white"/>
<path d="M18.8968 17.6276V18.1634L11.6574 10.925H12.1931L18.8968 17.6276Z" fill="white"/>
<path d="M12.1931 10.925H11.6574L11.2789 10.5465H11.8146L12.1931 10.925Z" fill="white"/>
<path d="M11.8146 10.5465H11.2789L10.9004 10.167H11.4361L11.8146 10.5465Z" fill="white"/>
<path d="M11.4361 10.167H10.9004L10.5219 9.78847H11.0566L11.4361 10.167Z" fill="white"/>
<path d="M11.0566 9.78847H10.5219L10.1424 9.40998H10.6781L11.0566 9.78847Z" fill="white"/>
<path d="M19.6538 9.40998H19.2753L19.2753 9.78847H19.6538L19.6538 9.40998Z" fill="white"/>
<path d="M19.6538 9.78847H19.2753V10.167L19.6538 10.167V9.78847Z" fill="white"/>
<path d="M19.6538 10.167L19.2753 10.167V10.5454H19.6538L19.6538 10.167Z" fill="white"/>
<path d="M20.0323 10.167H19.6538L19.6538 10.5454H20.0323V10.167Z" fill="white"/>
<path d="M20.0323 10.5465H19.6538V10.925H20.0323V10.5465Z" fill="white"/>
<path d="M20.0323 10.925V18.7306L19.9987 18.7306L19.6538 18.3857L19.6538 10.925H20.0323Z" fill="white"/>
<path d="M19.6538 10.5465H19.2753V10.925H19.6538V10.5465Z" fill="white"/>
<path d="M19.6538 10.925L19.6538 18.3857L19.2753 18.0061V10.925H19.6538Z" fill="white"/>
<path d="M0.4873 0.351471V0.729957L0.391892 0.729957L0.108813 0.446879L0.108817 0.351471H0.4873Z" fill="white"/>
<path d="M0.4873 1.48798H0.108813V1.86647H0.4873V1.48798Z" fill="white"/>
<path d="M19.1495 19.4876H18.8968V19.2349L19.1495 19.4876Z" fill="white"/>
<path d="M19.528 19.8671H19.2753V19.6134L19.528 19.8671Z" fill="white"/>
<path d="M0.865784 0.668099V0.729957L0.4873 0.729957V0.351471H0.548108L0.865784 0.668099Z" fill="white"/>
<path d="M0.865784 1.10844L0.865791 1.20385L0.770383 1.10844H0.865784Z" fill="white"/>
<path d="M0.865784 0.729957V1.10844H0.770383L0.487305 0.825365L0.4873 0.729957L0.865784 0.729957Z" fill="white"/>
<path d="M1.24428 0.729957L1.24427 1.04763L0.927641 0.729957L1.24428 0.729957Z" fill="white"/>
<path d="M20.4118 20.2141L20.4118 20.2456H20.0323V19.8671H20.0637L20.4118 20.2141Z" fill="white"/>
<path d="M19.2753 18.7306V19.0776L18.9283 18.7306H19.2753Z" fill="white"/>
<path d="M19.6538 19.1091V19.4561L19.3068 19.1091H19.6538Z" fill="white"/>
<path d="M20.0323 19.2999L20.0323 19.4876H19.6852L19.6538 19.4561V19.1091H19.8425L20.0323 19.2999Z" fill="white"/>
<path d="M20.0323 19.8357V19.8671H19.6538V19.4876H19.6852L20.0323 19.8357Z" fill="white"/>
<path d="M1.6238 1.10844L1.62381 1.42612L1.30613 1.10844H1.6238Z" fill="white"/>
<path d="M1.24427 0.511882L1.24428 0.729957L0.927641 0.729957L0.865784 0.668099L0.865785 0.351471H1.08386L1.24427 0.511882Z" fill="white"/>
<path d="M1.62381 0.729957L1.6238 0.890368L1.4634 0.729957H1.62381Z" fill="white"/>
<path d="M1.6238 0.890368L1.6238 1.10844H1.30613L1.24427 1.04763L1.24428 0.729957L1.4634 0.729957L1.6238 0.890368Z" fill="white"/>
<path d="M2.22037 1.48798L1.68461 1.48798L1.62381 1.42612L1.6238 1.10844H1.84188L2.22037 1.48798Z" fill="white"/>
<path d="M1.84188 1.10844H1.6238L1.6238 0.890368L1.84188 1.10844Z" fill="white"/>
<path d="M2.59885 1.86647L2.0631 1.86646L1.68461 1.48798L2.22037 1.48798L2.59885 1.86647Z" fill="white"/>
<path d="M6.88173 6.14829L6.88173 6.68404L2.0631 1.86646L2.59885 1.86647L6.88173 6.14829Z" fill="white"/>
<path d="M7.26022 6.52677V7.06253L6.88173 6.68404L6.88173 6.14829L7.26022 6.52677Z" fill="white"/>
<path d="M7.6387 6.90526L7.6387 7.44101L7.26022 7.06253V6.52677L7.6387 6.90526Z" fill="white"/>
<path d="M18.8968 18.1634L18.8968 18.6991L11.1227 10.925H11.6574L18.8968 18.1634Z" fill="white"/>
<path d="M20.221 19.4876H20.0323L20.0323 19.2999L20.221 19.4876Z" fill="white"/>
<path d="M20.0323 19.4876V19.8357L19.6852 19.4876H20.0323Z" fill="white"/>
<path d="M20.4118 19.6784L20.4118 19.8671H20.0637L20.0323 19.8357V19.4876H20.221L20.4118 19.6784Z" fill="white"/>
<path d="M19.463 18.7306L19.2753 18.7306V18.5419L19.463 18.7306Z" fill="white"/>
<path d="M19.2753 18.5419V18.7306H18.9283L18.8968 18.6991L18.8968 18.1634L19.2753 18.5419Z" fill="white"/>
<path d="M20.0323 19.1091V19.2999L19.8425 19.1091L20.0323 19.1091Z" fill="white"/>
<path d="M19.8425 19.1091H19.6538V18.9204L19.8425 19.1091Z" fill="white"/>
<path d="M19.6538 18.7306V18.9204L19.463 18.7306H19.6538Z" fill="white"/>
<path d="M20.0323 18.7641V19.1091L19.8425 19.1091L19.6538 18.9204V18.7306H19.9987L20.0323 18.7641Z" fill="white"/>
<path d="M10.1424 9.40998H9.60661L8.39672 8.19903V7.66328L10.1424 9.40998Z" fill="white"/>
<path d="M9.4504 9.78847H8.91464L8.53616 9.40998H9.07191L9.4504 9.78847Z" fill="white"/>
<path d="M11.6574 10.925H11.1227L10.7431 10.5465H11.2789L11.6574 10.925Z" fill="white"/>
<path d="M10.9004 10.167H10.3646L9.98615 9.78847H10.5219L10.9004 10.167Z" fill="white"/>
<path d="M11.2789 10.5465H10.7431L10.3646 10.167H10.9004L11.2789 10.5465Z" fill="white"/>
<path d="M10.5219 9.78847H9.98615L9.60661 9.40998H10.1424L10.5219 9.78847Z" fill="white"/>
<path d="M1.4634 0.729957L1.24428 0.729957L1.24427 0.511882L1.4634 0.729957Z" fill="white"/>
<path d="M0.487305 1.10844L0.4873 1.36112L0.234626 1.10844H0.487305Z" fill="white"/>
<path d="M0.770383 1.10844H0.487305V0.825365L0.770383 1.10844Z" fill="white"/>
<path d="M0.4873 0.729957L0.487305 0.825365L0.391892 0.729957L0.4873 0.729957Z" fill="white"/>
<path d="M0.487305 0.825365V1.10844H0.234626L0.108813 0.982631V0.729957H0.391892L0.487305 0.825365Z" fill="white"/>
<path d="M6.88172 7.21979V7.75554L1.62381 2.49763L1.6238 1.96187L6.88172 7.21979Z" fill="white"/>
<path d="M1.6238 1.96187L1.62381 2.49763L1.24427 2.11809V1.86647H1.5284L1.6238 1.96187Z" fill="white"/>
<path d="M6.88173 6.68404L6.88172 7.21979L1.6238 1.96187V1.86647L2.0631 1.86646L6.88173 6.68404Z" fill="white"/>
<path d="M2.0631 1.86646L1.6238 1.86647L1.62381 1.48798L1.68461 1.48798L2.0631 1.86646Z" fill="white"/>
<path d="M1.14886 1.48798H0.865791V1.20385L1.14886 1.48798Z" fill="white"/>
<path d="M1.24427 1.86647V2.11809L0.992645 1.86647H1.24427Z" fill="white"/>
<path d="M1.24427 1.48798L1.24427 1.58234L1.14886 1.48798H1.24427Z" fill="white"/>
<path d="M1.6238 1.86647V1.96187L1.5284 1.86647H1.6238Z" fill="white"/>
<path d="M1.62381 1.48798L1.6238 1.86647H0.992645L0.865784 1.7396L0.865791 1.48798H1.14886L1.24427 1.58234L1.24427 1.48798H1.62381Z" fill="white"/>
<path d="M0.614166 1.48798H0.4873V1.36112L0.614166 1.48798Z" fill="white"/>
<path d="M0.865791 1.48798L0.865784 1.7396L0.614166 1.48798H0.865791Z" fill="white"/>
<path d="M0.992645 1.86647H0.865784V1.7396L0.992645 1.86647Z" fill="white"/>
<path d="M0.865784 1.7396V1.86647H0.4873V1.48798H0.614166L0.865784 1.7396Z" fill="white"/>
<path d="M18.3925 18.7306H17.8568L10.0511 10.925H10.5869L18.3925 18.7306Z" fill="white"/>
<path d="M18.771 19.1091H18.2353L17.8568 18.7306H18.3925L18.771 19.1091Z" fill="white"/>
<path d="M18.8968 19.2349V19.4876H18.6137L18.2353 19.1091H18.771L18.8968 19.2349Z" fill="white"/>
<path d="M19.2753 19.6134V19.8671H18.9933L18.8968 19.7707V19.4876H19.1495L19.2753 19.6134Z" fill="white"/>
<path d="M18.8968 19.4876V19.7707L18.6137 19.4876H18.8968Z" fill="white"/>
<path d="M19.6538 19.8671L19.6538 19.9919L19.528 19.8671H19.6538Z" fill="white"/>
<path d="M19.6538 19.9919V20.2456L19.3718 20.2456L19.2753 20.1491V19.8671H19.528L19.6538 19.9919Z" fill="white"/>
<path d="M19.2753 19.8671V20.1491L18.9933 19.8671H19.2753Z" fill="white"/>
<path d="M9.07191 9.40998H8.53616L8.39672 9.27054L8.39672 8.73479L9.07191 9.40998Z" fill="white"/>
<path d="M8.39672 8.73479L8.39672 9.27054L8.01719 8.891L8.01718 8.35525L8.39672 8.73479Z" fill="white"/>
<path d="M8.01718 8.35525L8.01719 8.891L7.6387 8.51252L7.6387 7.97676L8.01718 8.35525Z" fill="white"/>
<path d="M7.6387 7.97676L7.6387 8.51252L7.26022 8.13403V7.59828L7.6387 7.97676Z" fill="white"/>
<path d="M7.26022 7.06253V7.59828L6.88172 7.21979L6.88173 6.68404L7.26022 7.06253Z" fill="white"/>
<path d="M7.26022 7.59828V8.13403L6.88172 7.75554V7.21979L7.26022 7.59828Z" fill="white"/>
<path d="M10.5869 10.925H10.0511L9.67267 10.5465H10.2074L10.5869 10.925Z" fill="white"/>
<path d="M10.2074 10.5465H9.67267L9.29313 10.167H9.82888L10.2074 10.5465Z" fill="white"/>
<path d="M9.82888 10.167H9.29313L8.91464 9.78847H9.4504L9.82888 10.167Z" fill="white"/>
<path d="M8.29566 19.108H7.91717V19.4865H8.29566V19.108Z" fill="white"/>
<path d="M0.108813 1.86647H0.4873M0.108813 1.86647V9.40998M0.108813 1.86647H0.0742188M0.108813 1.86647V1.48798M0.4873 1.86647V9.40998M0.4873 1.86647H0.865784M0.4873 1.86647V1.48798M0.4873 9.40998H0.108813M0.4873 9.40998V9.78847M0.4873 9.40998L0.865784 9.40998M0.108813 9.40998V9.78847M0.108813 9.40998L0.0847046 9.40998M0.108813 19.8671H0.4873M0.108813 19.8671V20.2456M0.108813 19.8671H0.0951904M0.4873 19.8671V20.2456M0.4873 19.8671H0.865791M0.4873 20.2456H0.108813M0.4873 20.2456L0.487305 20.342M0.4873 20.2456H0.865784M0.108813 20.2456V20.342M0.108813 20.2456H0.0951904M0.108813 19.1091H0.4873M0.108813 19.1091V19.4876M0.108813 19.1091V18.7306M0.108813 19.1091H0.0951904M0.4873 19.1091V19.4876M0.4873 19.1091V18.7306M0.4873 19.1091H0.865784M0.4873 19.4876H0.108813M0.4873 19.4876V19.8661M0.4873 19.4876H0.865784M0.108813 19.4876V19.8661H0.4873M0.108813 19.4876H0.0951904M0.4873 19.8661H0.865791M0.108813 18.7306H0.4873M0.108813 18.7306V10.925M0.108813 18.7306H0.0951904M0.4873 18.7306V10.925M0.4873 18.7306H0.865784M0.108813 10.925H0.4873M0.108813 10.925V10.5465M0.108813 10.925H0.0847046M0.4873 10.925V10.5465M0.4873 10.925H0.865784M0.108813 10.5465H0.4873M0.108813 10.5465H0.0847046M0.4873 10.5465H0.865784M0.108813 10.167H0.4873M0.108813 10.167V10.5454H0.4873M0.108813 10.167V9.78847M0.108813 10.167H0.0847046M0.4873 10.167V10.5454M0.4873 10.167V9.78847M0.4873 10.167L0.865784 10.167M0.4873 10.5454H0.865784M0.108813 9.78847H0.4873M0.108813 9.78847H0.0847046M0.4873 9.78847H0.865784M0.391892 0.729957H0.108813M0.391892 0.729957L0.108813 0.446879M0.391892 0.729957L0.4873 0.729957M0.391892 0.729957L0.487305 0.825365M0.108813 0.729957V0.446879M0.108813 0.729957L0.0742188 0.729957M0.108813 0.729957V0.982631M0.108813 0.446879L0.108817 0.351471M0.4873 1.36112V1.48798M0.4873 1.36112L0.234626 1.10844M0.4873 1.36112L0.614166 1.48798M0.4873 1.36112L0.487305 1.10844M0.4873 1.48798H0.108813M0.4873 1.48798H0.614166M0.108813 1.48798V1.10844M0.108813 1.48798L0.0742188 1.48798M0.108813 1.10844H0.234626M0.108813 1.10844V0.982631M0.108813 1.10844H0.0742188M0.234626 1.10844L0.108813 0.982631M0.234626 1.10844H0.487305M1.24427 20.342V20.2456M1.24427 20.2456H1.62276V19.8671H1.24427M1.24427 20.2456V19.8671M1.24427 20.2456H0.865784M0.865784 20.342V20.2456M0.865784 20.2456L0.865791 19.8671M1.62381 2.49763V9.40998H1.24427M1.62381 2.49763L1.24427 2.11809M1.62381 2.49763L6.88172 7.75554M1.62381 2.49763L1.6238 1.96187M1.24427 9.40998V2.11809M1.24427 9.40998H0.865784M1.24427 9.40998H1.62276V9.78847M1.24427 9.40998L1.24427 9.78847M1.24427 2.11809L0.992645 1.86647M1.24427 2.11809V1.86647M0.865784 9.40998V1.86647M0.865784 9.40998V9.78847M0.865784 1.86647H0.992645M0.865784 1.86647V1.7396M0.992645 1.86647H1.24427M0.992645 1.86647H1.6238M0.992645 1.86647L0.865784 1.7396M7.6387 9.68135V10.5788M7.6387 9.68135L7.26022 9.30286M7.6387 9.68135L8.01718 10.0598M7.6387 10.5788H7.26022M7.6387 10.5788L8.01718 10.5788M7.26022 10.5788V9.30286M7.26022 10.5788H6.88173V8.92438L7.26022 9.30286M8.01718 10.0598V10.5788M8.01718 10.0598L8.39672 10.4394V10.5788L8.01718 10.5788M0.865784 9.78847H1.24427M0.865784 9.78847V10.167M1.24427 9.78847V10.167M1.24427 9.78847H1.62276M1.24427 10.167H0.865784M1.24427 10.167V10.5454M1.24427 10.167H1.62276M0.865784 10.167V10.5454M1.24427 10.5454H0.865784M1.24427 10.5454H1.62276V10.167M0.865784 10.5465H1.24427M0.865784 10.5465V10.925M1.24427 10.5465V10.925M1.24427 10.5465H1.62276V10.925M1.24427 10.925H0.865784M1.24427 10.925H1.62276M1.24427 10.925V18.7306M0.865784 10.925V18.7306M0.865784 18.7306H1.24427M0.865784 18.7306V19.1091M1.24427 18.7306V19.1091M1.24427 18.7306L1.62276 18.7306M1.24427 19.1091H0.865784M1.24427 19.1091V19.4876M1.24427 19.1091H1.62276M0.865784 19.1091V19.4876M1.24427 19.4876H0.865784M1.24427 19.4876H1.62276M1.24427 19.4876L1.24427 19.8661M0.865784 19.4876L0.865791 19.8661M1.62276 9.78847V10.167M1.62276 10.925V18.7306M1.62276 18.7306V19.1091M1.62276 19.1091V19.4876M1.6238 20.342V20.2456M1.6238 20.2456H6.88172M1.6238 20.2456V19.8671H6.88172M19.6538 0.668099V0.729957M19.6538 0.668099L19.5919 0.729957M19.6538 0.668099L19.9715 0.351471M19.6538 0.668099L19.6538 0.351471M19.6538 0.729957H19.5919M19.6538 0.729957L19.6538 1.10844M19.6538 0.729957L20.0323 0.729957M19.5919 0.729957L19.2753 1.04763M19.5919 0.729957L19.2753 0.729957M19.2753 1.86647V2.11809M19.2753 1.86647H18.9912M19.2753 1.86647H19.5269M19.2753 1.86647V1.58339M19.2753 2.11809L18.8968 2.49763M19.2753 2.11809L19.2753 9.40998M19.2753 2.11809L19.5269 1.86647M18.8968 2.49763V1.96187M18.8968 2.49763V9.40998M18.8968 2.49763L14.723 6.67041L14.4546 6.40306M18.8968 1.96187L18.9912 1.86647M18.8968 1.96187V1.86647M18.8968 1.96187L14.4546 6.40306M18.9912 1.86647L19.2753 1.58339M18.9912 1.86647H18.8968M8.01718 1.26886V5.6221M8.01718 1.26886L7.77604 1.02771H7.6387M8.01718 1.26886L8.39672 1.64839V6.00058L8.01718 5.6221M8.01718 5.6221L7.6387 5.24361M7.6387 5.24361V1.02771M7.6387 5.24361L7.26022 4.86408M7.6387 1.02771H7.26022M13.1157 6.13571L12.8484 6.40306M13.1157 6.13571L8.84754 1.86647M13.1157 6.13571L13.3841 5.86731M12.8484 6.40306L8.39672 1.95139M12.8484 6.40306L12.58 6.67041L8.39672 2.48714M8.39672 1.95139V1.86647M8.39672 1.95139L8.3118 1.86646M8.39672 1.95139V2.48714M8.39672 1.86647H8.84754M8.39672 1.86647L8.39672 1.48798M8.39672 1.86647L8.3118 1.86646M8.84754 1.86647L8.46801 1.48798M8.84754 1.86647H9.38225M18.8968 1.86647H18.4565M18.8968 1.86647V1.48798M14.4546 6.40306L14.1872 6.13466M14.1872 6.13466L18.4565 1.86647M14.1872 6.13466L13.9188 5.86731M18.4565 1.86647L18.835 1.48798M18.4565 1.86647H17.9207M19.6538 19.4876V19.8671M19.6538 19.4876H19.2753M19.6538 19.4876V19.4561M19.6538 19.4876H19.6852M19.6538 19.8671H19.528M19.6538 19.8671L19.6538 19.9919M19.6538 19.8671H20.0323M19.528 19.8671L19.2753 19.6134M19.528 19.8671H19.2753M19.528 19.8671L19.6538 19.9919M19.2753 19.6134V19.4876M19.2753 19.6134L19.1495 19.4876M19.2753 19.6134V19.8671M19.2753 19.4876V19.1091M19.2753 19.4876H19.1495M19.6538 1.86647V9.40998M19.6538 1.86647H19.5269M19.6538 1.86647H20.0323M19.6538 1.86647L19.6538 1.7396M19.6538 9.40998H19.2753M19.6538 9.40998L20.0323 9.40998M19.6538 9.40998L19.6538 9.78847M19.2753 9.40998H18.8968M19.2753 9.40998L19.2753 9.78847M19.5269 1.86647L19.6538 1.7396M18.8968 9.40998V9.78847M19.2753 10.925V18.0061M19.2753 10.925H18.8968M19.2753 10.925V10.5465M19.2753 10.925H19.6538M19.2753 18.0061L18.8968 17.6276M19.2753 18.0061L19.2753 18.5419M19.2753 18.0061L19.6538 18.3857M18.8968 17.6276V10.925M18.8968 17.6276V18.1634M18.8968 17.6276L12.1931 10.925M18.8968 10.925V10.5465H19.2753M20.4118 0.446879V0.729957M20.4118 0.446879L20.1277 0.729957M20.4118 0.446879L20.4118 0.351471M20.4118 0.729957H20.1277M20.4118 0.729957L20.4244 0.729957M20.4118 0.729957L20.4118 0.982631M20.1277 0.729957L20.0323 0.729957M20.1277 0.729957L20.0323 0.825365M20.0323 1.86647H20.4108M20.0323 1.86647V9.40998M20.0323 1.86647V1.48798M20.4108 1.86647V9.40998M20.4108 1.86647V1.48798H20.0323M20.4108 9.40998H20.0323M20.4108 9.40998V9.78847M20.0323 9.40998V9.78847M20.0323 1.48798L20.4118 1.48798V1.10844M20.0323 1.48798V1.36112M20.0323 1.48798L19.9054 1.48798M20.4118 1.10844H20.2849M20.4118 1.10844V0.982631M20.0323 1.36112L20.2849 1.10844M20.0323 1.36112L20.0323 1.10844M20.0323 1.36112L19.9054 1.48798M20.2849 1.10844L20.4118 0.982631M20.2849 1.10844H20.0323M20.4118 19.8671V20.2141M20.4118 19.8671H20.0637M20.4118 19.8671L20.4118 19.6784M20.4118 20.2141L20.0637 19.8671M20.4118 20.2141L20.4118 20.2456H20.0323M20.0637 19.8671H20.0323M20.0637 19.8671L20.0323 19.8357M20.4118 19.1091V18.7306H20.0323M20.4118 19.1091H20.3772M20.4118 19.1091L20.4118 19.1426M20.3772 19.1091L20.0323 18.7641M20.3772 19.1091L20.0323 19.1091M20.3772 19.1091L20.4118 19.1426M20.0323 18.7641V18.7306M20.0323 18.7641V19.1091M20.0323 18.7641L19.9987 18.7306M20.0323 18.7306L20.4108 18.7306V10.925M20.0323 18.7306V10.925M20.0323 18.7306L19.9987 18.7306M20.4118 19.1426L20.4118 19.4876M20.0323 10.925H20.4108M20.0323 10.925V10.5465M20.0323 10.925H19.6538M20.4108 10.925V10.5465H20.0323M19.2753 10.5465H19.6538M18.8968 10.167H19.2753M18.8968 10.167V10.5454H19.2753M18.8968 10.167V9.78847M19.2753 10.167V10.5454M19.2753 10.167V9.78847M19.2753 10.167L19.6538 10.167M19.2753 10.5454H19.6538M18.8968 9.78847H19.2753M19.2753 9.78847H19.6538M20.4108 9.78847H20.0323M20.4108 9.78847V10.167M20.0323 9.78847V10.167M20.0323 9.78847H19.6538M20.4108 10.167H20.0323M20.4108 10.167V10.5454H20.0323M20.0323 10.167V10.5454M20.0323 10.167H19.6538M20.0323 10.5454H19.6538M20.0323 10.5465H19.6538M20.4118 19.4876V19.6784M20.4118 19.4876H20.221M20.4118 19.6784L20.221 19.4876M20.221 19.4876L20.0323 19.2999M20.221 19.4876H20.0323M7.26021 10.95H6.88173V11.5368H7.26021V10.95ZM7.26021 10.95H7.6387M7.26021 10.95L7.26022 11.3284H7.6387M7.26021 9.81345H6.88173V10.1919M7.26021 9.81345V10.1919M7.26021 9.81345H7.6387V10.1919M7.26021 10.1919H6.88173M7.26021 10.1919V10.5704M7.26021 10.1919H7.6387M6.88173 10.1919V10.5704M7.26021 10.5704H6.88173M7.26021 10.5704V10.9489M7.26021 10.5704L7.6387 10.5704M6.88173 10.5704V10.9489H7.26021M7.26021 10.9489H7.6387M1.6238 19.1091H6.88172M1.6238 19.1091V19.4876M1.6238 19.1091V18.7306H6.88172M6.88172 19.1091V19.4876M6.88172 19.1091V18.7306M6.88172 19.1091H7.26021M6.88172 19.4876H1.6238M6.88172 19.4876H7.26021M6.88172 19.4876V19.8661M1.6238 19.4876V19.8661H6.88172M6.88172 18.7306H7.26021M7.26021 18.7306V19.1091M7.26021 18.7306H7.6387V19.8671M7.26021 18.7306L7.26022 19.8671M7.26021 19.1091V19.4876M7.26021 19.4876V19.8661H6.88172M19.6538 19.4561L19.3068 19.1091M19.6538 19.4561V19.1091M19.6538 19.4561L19.6852 19.4876M19.2753 19.1091H19.3068M19.2753 19.1091V19.0776M19.2753 19.1091H18.8968M19.3068 19.1091H19.6538M19.3068 19.1091L19.2753 19.0776M19.6538 18.3857V18.7306M19.6538 18.3857L19.9987 18.7306M19.6538 18.3857L19.6538 10.925M19.6538 18.7306H19.463M19.6538 18.7306H19.9987M19.6538 18.7306V18.9204M19.463 18.7306L19.2753 18.5419M19.463 18.7306L19.2753 18.7306M19.463 18.7306L19.6538 18.9204M19.2753 18.5419L18.8968 18.1634M19.2753 18.5419V18.7306M19.6538 18.9204V19.1091M19.6538 18.9204L19.8425 19.1091M19.6538 19.1091H19.8425M19.2753 19.0776V18.7306M19.2753 19.0776L18.9283 18.7306M19.2753 18.7306H18.9283M0.865791 19.8671H1.24427M6.88172 19.8671V20.2456M6.88172 19.8671H7.26022M6.88172 20.2456H7.26022M7.6387 19.8671H7.26022M7.6387 19.8671V20.2456M7.6387 19.8671H8.01718V20.2456H7.6387M7.26022 19.8671V20.2456M7.6387 20.2456H7.26022M8.01719 10.95H8.39567V11.3284H8.01719M8.01719 10.95V11.3284M8.01719 10.95H7.6387M8.01719 11.3284H7.6387M20.0323 19.8671V20.2456M20.0323 19.8671V19.8357M20.0323 20.2456H19.9075M19.9075 20.2456L19.6538 19.9919M19.9075 20.2456L19.6538 20.2456M19.6538 19.9919V20.2456M19.6538 20.2456L19.3718 20.2456L19.2753 20.1491M18.8968 18.6991V18.7306M18.8968 18.6991L11.1227 10.925M18.8968 18.6991L18.8968 18.1634M18.8968 18.6991L18.9283 18.7306M18.8968 18.7306H18.3925M18.8968 18.7306L18.8968 19.1091M18.8968 18.7306L18.9283 18.7306M18.3925 18.7306L10.5869 10.925M18.3925 18.7306L18.771 19.1091M18.3925 18.7306H17.8568M10.5869 10.925H11.1227M10.5869 10.925L10.2074 10.5465M10.5869 10.925H10.0511M11.1227 10.925L10.7431 10.5465M11.1227 10.925H11.6574M18.8968 19.1091H18.771M18.8968 19.1091L18.8968 19.2349M18.771 19.1091L18.8968 19.2349M18.771 19.1091H18.2353M19.1495 19.4876L18.8968 19.2349M19.1495 19.4876H18.8968M18.8968 19.2349V19.4876M1.62276 19.4876V19.8661H1.24427M1.24427 19.8661H0.865791M7.6387 10.5704V10.9489M7.6387 10.5704H8.01718M7.6387 10.5704V10.1919M7.6387 10.9489H8.01718M7.6387 10.95V11.3284M8.01718 10.5704V10.9489M8.01718 10.5704V10.1919H7.6387M8.01718 10.5704H8.39567V10.9489H8.01718M10.2074 10.5465H10.7431M10.2074 10.5465L9.82888 10.167M10.2074 10.5465H9.67267M10.7431 10.5465L10.3646 10.167M10.7431 10.5465H11.2789M0.927641 0.729957H0.865784M0.927641 0.729957L0.865784 0.668099M0.927641 0.729957L1.24427 1.04763M0.927641 0.729957L1.24428 0.729957M0.865784 0.729957V0.668099M0.865784 0.729957V1.10844M0.865784 0.729957L0.4873 0.729957M0.865784 0.668099L0.865785 0.351471M0.865784 0.668099L0.548108 0.351471M1.62381 0.354616V0.729957M1.62381 0.354616L1.61962 0.351471H1.24427M1.62381 0.354616L1.9981 0.729957M1.62381 0.729957H1.4634M1.62381 0.729957L1.6238 0.890368M1.62381 0.729957L1.9981 0.729957M1.4634 0.729957L1.24427 0.511882M1.4634 0.729957L1.6238 0.890368M1.4634 0.729957L1.24428 0.729957M1.24427 0.511882V0.351471M1.24427 0.511882L1.08386 0.351471M1.24427 0.511882L1.24428 0.729957M1.24427 0.351471H1.08386M1.08386 0.351471H0.865785M0.865785 0.351471H0.548108M0.548108 0.351471H0.4873M0.108817 0.351471H0.0742188M0.108817 0.351471H0.4873M20.4244 0.351471H20.4118M20.4118 0.351471H20.0323M7.71104 0.729957H7.6387M7.71104 0.729957L7.6387 0.657615M7.71104 0.729957L8.01718 1.03715M7.71104 0.729957L8.01718 0.729957M7.6387 0.729957V0.657615M7.6387 0.729957V1.10844M7.6387 0.729957L7.26021 0.729957M7.6387 0.657615L7.6387 0.351471M7.6387 0.657615L7.33256 0.351471M8.39672 0.351471V0.729957M8.39672 0.351471H8.01719M8.39672 0.351471H8.40301L8.78254 0.729957M8.39672 0.729957H8.2468M8.39672 0.729957L8.39672 0.879884M8.39672 0.729957L8.78254 0.729957M8.2468 0.729957L8.01719 0.501398M8.2468 0.729957L8.39672 0.879884M8.2468 0.729957L8.01718 0.729957M8.01719 0.501398V0.351471M8.01719 0.501398L7.86726 0.351471M8.01719 0.501398L8.01718 0.729957M8.01719 0.351471H7.86726M7.86726 0.351471H7.6387M19.4357 0.351471L19.2753 0.511882M19.4357 0.351471H19.2753M19.4357 0.351471H19.6538M19.2753 0.511882V0.351471M19.2753 0.511882L19.0562 0.729957M19.2753 0.511882V0.729957M19.2753 0.351471H18.9L18.8968 0.354616M19.9715 0.351471H19.6538M19.9715 0.351471H20.0323M7.6387 0.351471H7.33256M7.33256 0.351471H7.26021M19.6538 1.20385V1.48798M19.6538 1.20385L19.3707 1.48798M19.6538 1.20385L19.7492 1.10844M19.6538 1.20385L19.6538 1.10844M19.6538 1.48798H19.3707M19.6538 1.48798L19.9054 1.48798M19.6538 1.48798L19.6538 1.7396M19.3707 1.48798L19.2753 1.48798M19.3707 1.48798L19.2753 1.58339M20.0323 1.10844H19.7492M20.0323 1.10844V0.825365M19.9054 1.48798L19.6538 1.7396M19.7492 1.10844L20.0323 0.825365M19.7492 1.10844L19.6538 1.10844M0.865791 1.20385V1.48798M0.865791 1.20385L0.770383 1.10844M0.865791 1.20385L1.14886 1.48798M0.865791 1.20385L0.865784 1.10844M0.865791 1.48798H0.614166M0.865791 1.48798H1.14886M0.865791 1.48798L0.865784 1.7396M0.614166 1.48798L0.865784 1.7396M0.487305 1.10844H0.770383M0.487305 1.10844V0.825365M0.770383 1.10844H0.865784M0.770383 1.10844L0.487305 0.825365M6.88173 1.48798H7.26021M6.88173 1.48798V1.86646H7.26021M6.88173 1.48798V1.10844M7.26021 1.48798V1.86646M7.26021 1.48798L7.39756 1.48798M7.26021 1.48798L7.26022 1.35063M7.26021 1.86646H7.6387M7.01802 1.10844H6.88173M7.01802 1.10844L6.88173 0.972146M7.01802 1.10844H7.26022M7.01802 1.10844L7.26022 1.35063M6.88173 1.10844V0.972146M6.88173 0.972146V0.729957M1.24427 1.10844V1.48798M1.24427 1.10844H0.865784M1.24427 1.10844V1.04763M1.24427 1.10844H1.30613M1.24427 1.48798H1.14886M1.24427 1.48798H1.62381M1.24427 1.48798L1.24427 1.58234L1.14886 1.48798M1.24427 1.04763L1.30613 1.10844M1.24427 1.04763L1.24428 0.729957M1.62381 1.42612V1.48798M1.62381 1.42612L1.30613 1.10844M1.62381 1.42612L1.68461 1.48798M1.62381 1.42612L1.6238 1.10844M1.62381 1.48798L1.68461 1.48798M1.62381 1.48798L1.6238 1.86647M1.30613 1.10844H1.6238M8.01718 1.57185V1.86646M8.01718 1.57185L7.93226 1.48798M8.01718 1.57185L8.3118 1.86646M8.01718 1.57185L8.01719 1.48798M8.01718 1.86646H7.77604M8.01718 1.86646H8.3118M8.01718 1.86646L8.01718 2.10761M7.77604 1.86646L7.6387 1.72912M7.77604 1.86646H7.6387M7.77604 1.86646L8.01718 2.10761M7.6387 1.72912V1.48798M7.6387 1.72912L7.6387 1.86646M7.6387 1.72912L7.39756 1.48798M7.6387 1.48798H7.93226M7.6387 1.48798L7.6387 1.19337M7.6387 1.48798L7.39756 1.48798M7.93226 1.48798L8.01719 1.48798M7.93226 1.48798L7.6387 1.19337M7.6387 1.19337L7.55378 1.10844M7.6387 1.19337L7.6387 1.10844M7.39756 1.48798L7.26022 1.35063M7.26022 1.35063V1.10844M7.26022 1.10844H7.55378M7.26022 1.10844V0.814881M7.55378 1.10844L7.26022 0.814881M7.55378 1.10844L7.6387 1.10844M7.26022 0.814881L7.26021 0.729957M7.26022 0.814881L7.17529 0.729957M8.39672 1.41564V1.48798M8.39672 1.41564L8.08953 1.10844M8.39672 1.41564L8.46801 1.48798M8.39672 1.41564L8.39672 1.10844M8.39672 1.48798H8.01719M8.39672 1.48798L8.46801 1.48798M8.01719 1.48798V1.10844M8.01719 1.10844H8.08953M8.01719 1.10844L8.01718 1.03715M8.01719 1.10844L7.6387 1.10844M8.08953 1.10844L8.01718 1.03715M8.08953 1.10844H8.39672M8.01718 1.03715L8.01718 0.729957M19.2753 1.48798V1.58339M19.2753 1.48798H18.8968M19.2753 1.48798V1.10844M18.8968 1.48798V1.42612M18.8968 1.48798H18.835M19.2753 1.10844H19.2135M19.2753 1.10844L19.2753 1.04763M19.2753 1.10844L19.6538 1.10844M18.8968 1.42612L19.2135 1.10844M18.8968 1.42612L18.835 1.48798M18.8968 1.42612V1.10844M19.2135 1.10844L19.2753 1.04763M19.2135 1.10844H18.8968M18.835 1.48798H18.2992M19.2753 1.04763L19.2753 0.729957M7.6387 7.44101V7.97676M7.6387 7.44101L7.26022 7.06253M7.6387 7.44101L8.01719 7.82055M7.6387 7.44101L7.6387 6.90526M7.6387 7.97676L7.26022 7.59828M7.6387 7.97676L8.01718 8.35525M7.6387 7.97676L7.6387 8.51252M7.26022 7.59828V7.06253M7.26022 7.59828V8.13403M7.26022 7.59828L6.88172 7.21979M7.26022 7.06253V6.52677M7.26022 7.06253L6.88173 6.68404M8.39672 7.12753V7.66328M8.39672 7.12753L8.01719 6.74904M8.39672 7.12753L10.6781 9.40998M8.39672 7.66328L8.01719 7.2848M8.39672 7.66328V8.19903M8.39672 7.66328L10.1424 9.40998M8.01719 7.2848V6.74904M8.01719 7.2848L7.6387 6.90526M8.01719 7.2848V7.82055M8.01719 6.74904L7.6387 6.37056M7.6387 6.90526V6.37056M7.6387 6.90526L7.26022 6.52677M7.6387 6.37056L7.26022 5.99102M7.26022 6.52677V5.99102M7.26022 6.52677L6.88173 6.14829M7.26022 5.99102L6.88173 5.61254M6.88173 6.14829V5.61254M6.88173 6.14829L2.59885 1.86647M6.88173 6.14829L6.88173 6.68404M6.88173 5.61254L3.1346 1.86647M7.26022 4.86408V1.02771M7.26022 4.86408L6.88173 4.48559V1.02771H7.26022M17.9207 1.86647L13.9188 5.86731M17.9207 1.86647H17.385M17.9207 1.86647L18.2992 1.48798M13.9188 5.86731L13.6515 5.59995M13.6515 5.59995L17.385 1.86647M13.6515 5.59995L13.3841 5.86731M13.6515 5.59995L9.918 1.86647M17.385 1.86647L17.7635 1.48798M19.6538 9.78847V10.167M19.6538 10.167L19.6538 10.5454M8.46801 1.48798L9.00377 1.48798M13.3841 5.86731L9.38225 1.86647M9.38225 1.86647H9.918M9.38225 1.86647L9.00377 1.48798M9.918 1.86647L9.53952 1.48798M9.53952 1.48798H9.00377M9.53952 1.48798L9.16103 1.10844M9.00377 1.48798L8.62528 1.10844M8.62528 1.10844H9.16103M8.62528 1.10844L8.39672 0.879884M8.62528 1.10844H8.39672M9.16103 1.10844L8.78254 0.729957M8.39672 0.879884L8.39672 1.10844M7.26021 0.351471V0.729957M7.26021 0.351471H6.88173V0.436394M7.26021 0.729957H7.17529M7.17529 0.729957L6.88173 0.436394M7.17529 0.729957L6.88173 0.729957M6.88173 0.436394V0.729957M8.01718 2.10761L8.39672 2.48714M18.2992 1.48798H17.7635M18.2992 1.48798L18.6777 1.10844M17.7635 1.48798L18.1419 1.10844M18.6777 1.10844H18.1419M18.6777 1.10844L18.8968 0.890368M18.6777 1.10844H18.8968M18.1419 1.10844L18.5204 0.729957M18.8968 0.729957V0.890368M18.8968 0.729957H18.5204M18.8968 0.729957L19.0562 0.729957M18.8968 0.729957L18.8968 0.354616M18.8968 0.890368L19.0562 0.729957M18.8968 0.890368L18.8968 1.10844M18.5204 0.729957L18.8968 0.354616M19.0562 0.729957L19.2753 0.729957M20.0323 0.729957V0.351471M20.0323 0.729957L20.0323 0.825365M1.68461 1.48798L2.22037 1.48798M1.68461 1.48798L2.0631 1.86646M2.59885 1.86647H3.1346M2.59885 1.86647L2.22037 1.48798M2.59885 1.86647L2.0631 1.86646M3.1346 1.86647L2.75613 1.48798M2.22037 1.48798H2.75613M2.22037 1.48798L1.84188 1.10844M2.75613 1.48798L2.37763 1.10844M1.84188 1.10844H2.37763M1.84188 1.10844L1.6238 0.890368M1.84188 1.10844H1.6238M2.37763 1.10844L1.9981 0.729957M1.6238 0.890368L1.6238 1.10844M8.39672 8.19903L8.01719 7.82055M8.39672 8.19903V8.73479M8.39672 8.19903L9.60661 9.40998M8.01719 7.82055L8.01718 8.35525M20.0323 19.1091V19.2999M20.0323 19.1091L19.8425 19.1091M20.0323 19.2999L20.0323 19.4876M20.0323 19.2999L19.8425 19.1091M18.8968 18.1634L11.6574 10.925M8.01718 8.35525L8.39672 8.73479M8.01718 8.35525L8.01719 8.891M8.39672 8.73479L9.07191 9.40998M8.39672 8.73479L8.39672 9.27054M9.60661 9.40998H9.07191M9.60661 9.40998L9.98615 9.78847M9.60661 9.40998H10.1424M9.07191 9.40998L9.4504 9.78847M9.07191 9.40998H8.53616M9.82888 10.167H10.3646M9.82888 10.167L9.4504 9.78847M9.82888 10.167H9.29313M10.3646 10.167L9.98615 9.78847M10.3646 10.167H10.9004M9.4504 9.78847H9.98615M9.4504 9.78847H8.91464M9.98615 9.78847H10.5219M10.6781 9.40998H10.1424M10.6781 9.40998L11.0566 9.78847M10.1424 9.40998L10.5219 9.78847M11.6574 10.925H12.1931M11.6574 10.925L11.2789 10.5465M12.1931 10.925L11.8146 10.5465M11.2789 10.5465H11.8146M11.2789 10.5465L10.9004 10.167M11.8146 10.5465L11.4361 10.167M10.9004 10.167H11.4361M10.9004 10.167L10.5219 9.78847M11.4361 10.167L11.0566 9.78847M10.5219 9.78847H11.0566M19.6538 10.5465V10.925M0.4873 0.351471V0.729957M0.4873 0.729957L0.487305 0.825365M18.8968 19.4876H18.6137M18.8968 19.4876V19.7707M19.2753 19.8671H18.9933M19.2753 19.8671V20.1491M20.0323 19.4876H19.6852M20.0323 19.4876V19.8357M19.6852 19.4876L20.0323 19.8357M2.0631 1.86646L6.88173 6.68404M2.0631 1.86646L1.6238 1.86647M6.88173 6.68404L6.88172 7.21979M8.91464 9.78847L8.53616 9.40998M8.91464 9.78847L9.29313 10.167M8.53616 9.40998L8.39672 9.27054M6.88172 7.21979V7.75554M6.88172 7.21979L1.6238 1.96187M6.88172 7.75554L7.26022 8.13403M1.6238 1.96187L1.5284 1.86647M1.6238 1.96187V1.86647M1.24427 1.86647H1.5284M1.5284 1.86647H1.6238M17.8568 18.7306L10.0511 10.925M17.8568 18.7306L18.2353 19.1091M10.0511 10.925L9.67267 10.5465M18.2353 19.1091L18.6137 19.4876M18.6137 19.4876L18.8968 19.7707M18.9933 19.8671L18.8968 19.7707M18.9933 19.8671L19.2753 20.1491M8.39672 9.27054L8.01719 8.891M8.01719 8.891L7.6387 8.51252M7.6387 8.51252L7.26022 8.13403M9.67267 10.5465L9.29313 10.167M13.9187 6.403L14.1864 6.13537L14.454 6.403L14.1864 6.67062L13.9187 6.403ZM13.6516 6.6708L13.9193 6.40318L14.1869 6.6708L13.9193 6.93843L13.6516 6.6708ZM13.3831 6.93878L13.6507 6.67116L13.9184 6.93878L13.6507 7.20641L13.3831 6.93878ZM13.116 6.67096L13.3836 6.40333L13.6512 6.67096L13.3836 6.93859L13.116 6.67096ZM12.848 6.40243L13.1157 6.1348L13.3833 6.40243L13.1157 6.67006L12.848 6.40243ZM7.91717 18.7306H8.29566V19.1091H7.91717V18.7306ZM6.88256 11.3455H7.28256V20.242H6.88256V11.3455ZM7.02013 11.1622H8.27013V20.1337H7.02013V11.1622ZM7.27422 11.3455H7.67422V20.242H7.27422V11.3455ZM8.01797 11.1372H8.39714V20.2476H8.01797V11.1372ZM7.91717 19.4876H8.29566V19.8661H7.91717V19.4876ZM7.91717 19.8671H8.29566V20.2456H7.91717V19.8671ZM13.3829 5.86738L13.6506 5.59976L13.9182 5.86738L13.6506 6.13501L13.3829 5.86738ZM13.383 6.403L13.6506 6.13537L13.9183 6.403L13.6506 6.67063L13.383 6.403ZM12.5803 6.6711L12.8479 6.40347L13.1155 6.6711L12.8479 6.93873L12.5803 6.6711ZM13.1161 7.2067L13.3837 6.93907L13.6513 7.2067L13.3837 7.47433L13.1161 7.2067ZM13.1158 6.13521L13.3835 5.86759L13.6511 6.13521L13.3835 6.40284L13.1158 6.13521ZM13.6516 6.13516L13.9192 5.86753L14.1868 6.13516L13.9192 6.40278L13.6516 6.13516ZM12.8482 6.93812L13.1158 6.67049L13.3834 6.93812L13.1158 7.20575L12.8482 6.93812ZM13.3832 7.47452L13.6509 7.2069L13.9185 7.47452L13.6509 7.74215L13.3832 7.47452ZM13.6517 7.20659L13.9194 6.93896L14.187 7.20659L13.9194 7.47422L13.6517 7.20659ZM13.9188 6.93864L14.1864 6.67102L14.4541 6.93864L14.1864 7.20627L13.9188 6.93864ZM14.1874 6.67082L14.455 6.40319L14.7226 6.67082L14.455 6.93845L14.1874 6.67082ZM7.91717 19.108H8.29566V19.4865H7.91717V19.108Z" stroke="white" stroke-width="0.0104844" stroke-miterlimit="10"/>
</g>
</g>
<defs>
<clipPath id="clip0_1253_334">
<rect width="20.3502" height="20" fill="white" transform="translate(0.0742188 0.342255)"/>
</clipPath>
</defs>
</svg>
