<svg width="41" height="40" viewBox="0 0 41 40" fill="none" xmlns="http://www.w3.org/2000/svg">
<path d="M0.976552 3.04854H0.21958V18.1356H0.976552V3.04854Z" fill="white"/>
<path d="M0.976552 39.0498H0.21958V39.8068H0.976552V39.0498Z" fill="white"/>
<path d="M0.976552 37.5338H0.21958V38.2907H0.976552V37.5338Z" fill="white"/>
<path d="M0.976552 38.2907H0.21958V39.0477H0.976552V38.2907Z" fill="white"/>
<path d="M0.976552 36.7768H0.21958V37.5338H0.976552V36.7768Z" fill="white"/>
<path d="M0.976552 21.1655H0.21958V36.7768H0.976552V21.1655Z" fill="white"/>
<path d="M0.976552 20.4086H0.21958V21.1655H0.976552V20.4086Z" fill="white"/>
<path d="M0.976552 19.6495H0.21958V20.4065H0.976552V19.6495Z" fill="white"/>
<path d="M0.976552 18.8925H0.21958V19.6495H0.976552V18.8925Z" fill="white"/>
<path d="M0.976552 18.1356H0.21958V18.8925H0.976552V18.1356Z" fill="white"/>
<path d="M0.785736 0.775527H0.21958V0.20937L0.785736 0.775527Z" fill="white"/>
<path d="M0.976552 2.03784V2.29157H0.21958V1.5325H0.471205L0.976552 2.03784Z" fill="white"/>
<path d="M0.471205 1.5325H0.21958V1.28087L0.471205 1.5325Z" fill="white"/>
<path d="M3.24957 4.31086V18.1356H2.4905V3.55179L3.24957 4.31086Z" fill="white"/>
<path d="M2.4905 3.55179V18.1356H1.73352V3.04854H1.98724L2.4905 3.55179Z" fill="white"/>
<path d="M15.2794 18.6783V20.4732H14.5224V17.9213L15.2794 18.6783Z" fill="white"/>
<path d="M16.0363 19.4353V20.4732L15.2794 20.4732V18.6783L16.0363 19.4353Z" fill="white"/>
<path d="M2.49049 18.8925H1.73352V19.6495H2.49049V18.8925Z" fill="white"/>
<path d="M2.49049 19.6495H1.73352V20.4065H2.49049V19.6495Z" fill="white"/>
<path d="M2.49049 20.4086H1.73352V21.1655H2.49049V20.4086Z" fill="white"/>
<path d="M2.49049 36.7768H1.73352V37.5338H2.49049V36.7768Z" fill="white"/>
<path d="M2.49049 37.5338H1.73352V38.2907H2.49049V37.5338Z" fill="white"/>
<path d="M3.24747 18.8925H2.49049V19.6495H3.24747V18.8925Z" fill="white"/>
<path d="M3.24747 18.1356H2.4905L2.49049 18.8925H3.24747V18.1356Z" fill="white"/>
<path d="M3.24747 20.4086H2.49049V21.1655H3.24747V20.4086Z" fill="white"/>
<path d="M3.24747 19.6495H2.49049V20.4065H3.24747V19.6495Z" fill="white"/>
<path d="M3.24747 21.1655H2.49049V36.7768L3.24747 36.7768V21.1655Z" fill="white"/>
<path d="M3.24747 36.7768L2.49049 36.7768V37.5338H3.24747V36.7768Z" fill="white"/>
<path d="M39.3095 0.651811V0.775527H39.1858L39.3095 0.651811Z" fill="white"/>
<path d="M38.5526 3.04854V3.55179L37.7956 4.31086V3.23936L37.9843 3.04854H38.5526Z" fill="white"/>
<path d="M16.0363 1.85332V10.5598L15.2793 9.80283V1.37104H15.554L16.0363 1.85332Z" fill="white"/>
<path d="M26.2334 11.587L25.6987 12.1217L16.7954 3.21839V3.04854H17.697L26.2334 11.587Z" fill="white"/>
<path d="M37.7956 3.04854V3.23936L28.9111 12.1217L28.3764 11.5849L36.9149 3.04854H37.7956Z" fill="white"/>
<path d="M28.3747 11.5863L27.8395 12.1216L28.3747 12.6569L28.91 12.1216L28.3747 11.5863Z" fill="white"/>
<path d="M27.8405 12.122L27.3052 12.6572L27.8405 13.1925L28.3757 12.6572L27.8405 12.122Z" fill="white"/>
<path d="M27.3034 12.6579L26.7682 13.1932L27.3034 13.7284L27.8387 13.1932L27.3034 12.6579Z" fill="white"/>
<path d="M26.7691 12.1223L26.2339 12.6575L26.7691 13.1928L27.3044 12.6575L26.7691 12.1223Z" fill="white"/>
<path d="M26.2333 11.5852L25.698 12.1205L26.2333 12.6557L26.7685 12.1205L26.2333 11.5852Z" fill="white"/>
<path d="M39.3095 38.2907V39.0498H39.0579L38.5526 38.5424V38.2907H39.3095Z" fill="white"/>
<path d="M39.3095 3.04854V18.1356H38.5526L38.5526 3.55179L39.0558 3.04854H39.3095Z" fill="white"/>
<path d="M38.5526 3.55179L38.5526 18.1356H37.7956V4.31086L38.5526 3.55179Z" fill="white"/>
<path d="M38.5526 21.1655V35.3278L37.7956 34.5709V21.1655H38.5526Z" fill="white"/>
<path d="M40.8256 0.20937V0.775527H40.2573L40.8256 0.20937Z" fill="white"/>
<path d="M40.8235 3.04854H40.0665V18.1356H40.8235V3.04854Z" fill="white"/>
<path d="M40.8235 2.29157H40.0665V3.04854H40.8235V2.29157Z" fill="white"/>
<path d="M40.8256 1.5325V2.29157L40.0665 2.29157V2.03784L40.5718 1.5325H40.8256Z" fill="white"/>
<path d="M40.8256 1.28087V1.5325H40.5718L40.8256 1.28087Z" fill="white"/>
<path d="M40.8256 39.0498V39.7439L40.1294 39.0498H40.8256Z" fill="white"/>
<path d="M40.8256 36.7768V37.5338H40.7564L40.0665 36.8439V36.7768H40.8256Z" fill="white"/>
<path d="M40.8235 21.1655H40.0665V36.7768L40.8235 36.7768V21.1655Z" fill="white"/>
<path d="M38.5526 20.4086H37.7956V21.1655H38.5526V20.4086Z" fill="white"/>
<path d="M38.5526 19.6495H37.7956V20.4065H38.5526V19.6495Z" fill="white"/>
<path d="M38.5526 18.8925H37.7956V19.6495H38.5526V18.8925Z" fill="white"/>
<path d="M38.5526 18.1356H37.7956V18.8925H38.5526L38.5526 18.1356Z" fill="white"/>
<path d="M40.8235 18.1356H40.0665V18.8925H40.8235V18.1356Z" fill="white"/>
<path d="M40.8235 18.8925H40.0665V19.6495H40.8235V18.8925Z" fill="white"/>
<path d="M40.8235 19.6495H40.0665V20.4065H40.8235V19.6495Z" fill="white"/>
<path d="M40.8235 20.4086H40.0665V21.1655H40.8235V20.4086Z" fill="white"/>
<path d="M40.8256 38.2907V38.6724L40.4439 38.2907H40.8256Z" fill="white"/>
<path d="M14.5224 21.2155H13.7654V22.3892H14.5224V21.2155Z" fill="white"/>
<path d="M14.5224 17.9213V20.4732H13.7654V17.1644L14.5224 17.9213Z" fill="white"/>
<path d="M14.5224 18.9425H13.7654V19.6995H14.5224V18.9425Z" fill="white"/>
<path d="M14.5224 19.6995H13.7654V20.4564H14.5224V19.6995Z" fill="white"/>
<path d="M14.5224 20.4564H13.7654V21.2134H14.5224V20.4564Z" fill="white"/>
<path d="M16.5933 36.7768H15.8363V37.5337H16.5933V36.7768Z" fill="white"/>
<path d="M16.7954 20.1943V20.4732L16.0363 20.4732V19.4353L16.7954 20.1943Z" fill="white"/>
<path d="M14.5671 22.0066H13.7671V39.7997H14.5671V22.0066Z" fill="white"/>
<path d="M16.5422 21.64H14.0422V39.583H16.5422V21.64Z" fill="white"/>
<path d="M15.3504 22.0066H14.5504V39.7997H15.3504V22.0066Z" fill="white"/>
<path d="M13.7654 37.5338H3.24956V38.2907H13.7654V37.5338Z" fill="white"/>
<path d="M13.7654 36.7768H3.24956V37.5338H13.7654V36.7768Z" fill="white"/>
<path d="M14.5224 36.7768H13.7654V37.5338H14.5224V36.7768Z" fill="white"/>
<path d="M14.5224 37.5338H13.7654V38.2907H14.5224V37.5338Z" fill="white"/>
<path d="M39.3095 38.2278V38.2907H38.5526V37.5338H38.6155L39.3095 38.2278Z" fill="white"/>
<path d="M39.3095 36.0869V36.7768H38.9279L38.5526 36.3993L38.5526 35.3278L39.3095 36.0869Z" fill="white"/>
<path d="M39.9994 36.7768H39.3095V36.0869L39.9994 36.7768Z" fill="white"/>
<path d="M39.3095 37.1563V37.5338H38.6155L38.5526 37.4708V36.7768L38.9279 36.7768L39.3095 37.1563Z" fill="white"/>
<path d="M1.73353 39.0498H0.976552V39.8068H1.73352L1.73353 39.0498Z" fill="white"/>
<path d="M13.7654 38.2907H3.24956V39.0477H13.7654V38.2907Z" fill="white"/>
<path d="M13.7654 39.0498H3.24956V39.8068H13.7654V39.0498Z" fill="white"/>
<path d="M15.2794 36.7768H14.5224L14.5224 39.0498H15.2794V36.7768Z" fill="white"/>
<path d="M15.2794 39.0498H14.5224V39.8068H15.2794V39.0498Z" fill="white"/>
<path d="M14.5224 38.2907H13.7654V39.0477H14.5224V38.2907Z" fill="white"/>
<path d="M14.5224 39.0498H13.7654V39.8068H14.5224V39.0498Z" fill="white"/>
<path d="M16.0363 39.0498H15.2794V39.8068H16.0363V39.0498Z" fill="white"/>
<path d="M16.7962 21.59H16.0379V39.8109H16.7962V21.59Z" fill="white"/>
<path d="M16.7933 21.2155H16.0363V21.9725H16.7933V21.2155Z" fill="white"/>
<path d="M16.5933 38.2907H15.8363V39.0477H16.5933V38.2907Z" fill="white"/>
<path d="M16.5933 39.0498H15.8363V39.8068H16.5933V39.0498Z" fill="white"/>
<path d="M40.0665 39.0498V39.8068H39.817L39.3095 39.2993L39.3095 39.0498H40.0665Z" fill="white"/>
<path d="M39.817 39.8068L39.3095 39.8068V39.2993L39.817 39.8068Z" fill="white"/>
<path d="M37.7956 36.7139V36.7768H36.787L21.1758 21.1655H22.2473L37.7956 36.7139Z" fill="white"/>
<path d="M37.7956 36.7768L37.7956 37.5338H37.544L36.787 36.7768H37.7956Z" fill="white"/>
<path d="M38.5526 37.4708V37.5338H37.7956L37.7956 36.7768L37.8585 36.7768L38.5526 37.4708Z" fill="white"/>
<path d="M38.5526 37.5338V38.2907H38.3009L37.7956 37.7854L37.7956 37.5338H38.5526Z" fill="white"/>
<path d="M38.5526 38.2907V38.5424L38.3009 38.2907H38.5526Z" fill="white"/>
<path d="M37.7956 37.5338L37.7956 37.7854L37.544 37.5338H37.7956Z" fill="white"/>
<path d="M3.24747 37.5338H2.49049V38.2907H3.24747V37.5338Z" fill="white"/>
<path d="M3.24747 38.2907H2.49049L2.4905 39.0477H3.24747V38.2907Z" fill="white"/>
<path d="M3.24747 39.0498H2.4905V39.8068H3.24747V39.0498Z" fill="white"/>
<path d="M1.73352 37.5338H0.976552V38.2907H1.73352V37.5338Z" fill="white"/>
<path d="M1.73352 38.2907H0.976552V39.0477H1.73353L1.73352 38.2907Z" fill="white"/>
<path d="M2.49049 38.2907H1.73352L1.73353 39.0477H2.4905L2.49049 38.2907Z" fill="white"/>
<path d="M2.4905 39.0498H1.73353L1.73352 39.8068H2.4905V39.0498Z" fill="white"/>
<path d="M15.2794 20.4564L14.5224 20.4564V21.2134H15.2794V20.4564Z" fill="white"/>
<path d="M15.2794 21.2155H14.5224L14.5224 21.9725H15.2794V21.2155Z" fill="white"/>
<path d="M16.0363 21.2155H15.2794V21.9725H16.0363V21.2155Z" fill="white"/>
<path d="M16.0363 20.4564H15.2794V21.2134H16.0363V20.4564Z" fill="white"/>
<path d="M15.2794 19.6995H14.5224V20.4564L15.2794 20.4564V19.6995Z" fill="white"/>
<path d="M15.2794 18.9425H14.5224V19.6995H15.2794V18.9425Z" fill="white"/>
<path d="M16.0363 19.6995H15.2794V20.4564H16.0363V19.6995Z" fill="white"/>
<path d="M1.73352 36.7768H0.976552V37.5338H1.73352V36.7768Z" fill="white"/>
<path d="M1.73352 19.6495L0.976552 19.6495V20.4065H1.73352V19.6495Z" fill="white"/>
<path d="M1.73352 20.4086H0.976552V21.1655H1.73352V20.4086Z" fill="white"/>
<path d="M1.73352 21.1655H0.976552V36.7768H1.73352V21.1655Z" fill="white"/>
<path d="M2.49049 21.1655H1.73352V36.7768H2.49049V21.1655Z" fill="white"/>
<path d="M22.2473 21.1655H21.1758L20.4167 20.4086H21.4882L22.2473 21.1655Z" fill="white"/>
<path d="M16.7933 20.4564H16.0363V21.2134H16.7933V20.4564Z" fill="white"/>
<path d="M1.85724 0.775527H1.73352V0.651811L1.85724 0.775527Z" fill="white"/>
<path d="M3.24957 0.0248453V0.775527H2.92875L2.4905 0.339377V0.0185547H3.24118L3.24957 0.0248453Z" fill="white"/>
<path d="M2.4905 0.0185547V0.339377L2.16968 0.0185547H2.4905Z" fill="white"/>
<path d="M1.73352 0.0185547L1.73352 0.651811L1.09817 0.0185547H1.73352Z" fill="white"/>
<path d="M15.424 0.775527H15.2793V0.630843L15.424 0.775527Z" fill="white"/>
<path d="M16.7954 0.0185547V0.775527H16.4955L16.0363 0.318408V0.0185547H16.7954Z" fill="white"/>
<path d="M16.0363 0.0185547V0.318408L15.7365 0.0185547H16.0363Z" fill="white"/>
<path d="M38.8734 0.0185547L38.5526 0.339377V0.0185547H38.8734Z" fill="white"/>
<path d="M39.9449 0.0185547L39.3095 0.651811L39.3095 0.0185547H39.9449Z" fill="white"/>
<path d="M15.2794 0.0185547L15.2793 0.630843L14.6671 0.0185547H15.2794Z" fill="white"/>
<path d="M39.3095 1.72332V2.29157H38.7434L39.3095 1.72332Z" fill="white"/>
<path d="M40.0665 1.5325L40.0665 2.03784L39.8128 2.29157L39.3095 2.29157V1.72332L39.5004 1.5325H40.0665Z" fill="white"/>
<path d="M1.73353 1.72331V2.29157H1.23028L0.976552 2.03784L0.976562 1.5325H1.54272L1.73353 1.72331Z" fill="white"/>
<path d="M14.5224 2.29157H13.7654V3.04854H14.5224V2.29157Z" fill="white"/>
<path d="M14.038 1.5325H13.7654V1.2599L14.038 1.5325Z" fill="white"/>
<path d="M2.49049 1.5325V2.29157H2.29968L1.73353 1.72331L1.73352 1.5325H2.49049Z" fill="white"/>
<path d="M2.49049 1.41088V1.5325H1.73352V0.775527H1.85724L2.49049 1.41088Z" fill="white"/>
<path d="M3.24957 2.16785V2.29157H2.49049V1.5325H2.61422L3.24957 2.16785Z" fill="white"/>
<path d="M16.0363 2.45932V3.04854H15.554L15.2793 2.77385V2.29157H15.8665L16.0363 2.45932Z" fill="white"/>
<path d="M15.2794 1.70234L15.2793 2.29157L14.7971 2.29157L14.5224 2.01688V1.5325H15.1095L15.2794 1.70234Z" fill="white"/>
<path d="M15.1095 1.5325H14.5224V0.945373L15.1095 1.5325Z" fill="white"/>
<path d="M15.2793 2.77385L15.2794 3.04854H14.5224V2.29157L14.7971 2.29157L15.2793 2.77385Z" fill="white"/>
<path d="M14.7971 2.29157L14.5224 2.29157L14.5224 2.01688L14.7971 2.29157Z" fill="white"/>
<path d="M15.554 3.04854H15.2794L15.2793 2.77385L15.554 3.04854Z" fill="white"/>
<path d="M2.61422 1.5325H2.49049V1.41088L2.61422 1.5325Z" fill="white"/>
<path d="M16.7954 2.14688V2.29157H16.0363V1.5325H16.181L16.7954 2.14688Z" fill="white"/>
<path d="M16.7954 2.29157L16.7954 3.04854L16.6255 3.04854L16.0363 2.45932L16.0363 2.29157H16.7954Z" fill="white"/>
<path d="M16.0363 1.38991L16.0363 1.5325L15.2793 1.5325V0.775527H15.424L16.0363 1.38991Z" fill="white"/>
<path d="M38.5526 2.29157V2.48238L37.9843 3.04854H37.7956V2.29157H38.5526Z" fill="white"/>
<path d="M38.5526 1.5325V2.29157H37.7956V2.16785L38.4289 1.5325H38.5526Z" fill="white"/>
<path d="M37.7956 2.29157V3.04854H36.9149L37.6719 2.29157H37.7956Z" fill="white"/>
<path d="M37.9843 3.04854L37.7956 3.23936V3.04854H37.9843Z" fill="white"/>
<path d="M37.7956 2.16785V2.29157H37.6719L37.7956 2.16785Z" fill="white"/>
<path d="M38.5526 1.41088L38.5526 1.5325H38.4289L38.5526 1.41088Z" fill="white"/>
<path d="M16.6255 3.04854H16.0363V2.45932L16.6255 3.04854Z" fill="white"/>
<path d="M16.7954 3.04854V3.21839L16.6255 3.04854L16.7954 3.04854Z" fill="white"/>
<path d="M16.181 1.5325H16.0363L16.0363 1.38991L16.181 1.5325Z" fill="white"/>
<path d="M27.3031 10.5151L26.7678 11.0504L27.3031 11.5856L27.8383 11.0504L27.3031 10.5151Z" fill="white"/>
<path d="M15.2794 14.1976V15.2691L14.5224 14.5122V13.4407L15.2794 14.1976Z" fill="white"/>
<path d="M16.7954 13.5707V14.6422L16.0363 13.8852V12.8137L16.7954 13.5707Z" fill="white"/>
<path d="M16.0363 12.8137V13.8852L15.2793 13.1261V12.0567L16.0363 12.8137Z" fill="white"/>
<path d="M15.2793 12.0567V13.1261L14.5224 12.3692V11.2976L15.2793 12.0567Z" fill="white"/>
<path d="M14.5224 11.2976V12.3692L13.7654 11.6122V10.5407L14.5224 11.2976Z" fill="white"/>
<path d="M2.4905 18.1356H1.73352V18.8925H2.49049L2.4905 18.1356Z" fill="white"/>
<path d="M1.73352 18.8925H0.976552V19.6495L1.73352 19.6495V18.8925Z" fill="white"/>
<path d="M1.73352 18.1356L0.976552 18.1356V18.8925H1.73352V18.1356Z" fill="white"/>
<path d="M1.73352 3.04854H0.976552V18.1356L1.73352 18.1356V3.04854Z" fill="white"/>
<path d="M15.2793 1.37104V9.80283L14.5224 9.04376V1.37104H15.2793Z" fill="white"/>
<path d="M35.8434 3.04854L27.8396 11.0502L27.3049 10.5155L34.7719 3.04854H35.8434Z" fill="white"/>
<path d="M40.0665 18.8925H39.3095V19.6495H40.0665V18.8925Z" fill="white"/>
<path d="M40.0665 18.1356L39.3095 18.1356L39.3095 18.8925H40.0665V18.1356Z" fill="white"/>
<path d="M40.0665 3.04854H39.3095V18.1356L40.0665 18.1356V3.04854Z" fill="white"/>
<path d="M17.697 3.04854H16.7954L16.7954 2.29157L16.938 2.29157L17.697 3.04854Z" fill="white"/>
<path d="M16.938 2.29157L16.7954 2.29157V2.14688L16.938 2.29157Z" fill="white"/>
<path d="M27.3049 10.5155L26.7702 11.0502L18.7665 3.04854H19.838L27.3049 10.5155Z" fill="white"/>
<path d="M19.081 2.29157H18.0095L17.2525 1.5325H18.324L19.081 2.29157Z" fill="white"/>
<path d="M19.838 3.04854H18.7665L18.0095 2.29157H19.081L19.838 3.04854Z" fill="white"/>
<path d="M18.324 1.5325H17.2525L16.7954 1.07538L16.7954 0.775527L17.567 0.775526L18.324 1.5325Z" fill="white"/>
<path d="M17.567 0.775526L16.7954 0.775527V0.0185547H16.808L17.567 0.775526Z" fill="white"/>
<path d="M14.5224 0.0185547V0.775527H14.3525L13.7654 0.188402V0.0185547H14.5224Z" fill="white"/>
<path d="M14.3525 0.775527L13.7654 0.775527V0.188402L14.3525 0.775527Z" fill="white"/>
<path d="M14.5224 0.775527L14.5224 0.945373L14.3525 0.775527H14.5224Z" fill="white"/>
<path d="M14.5224 0.945373V1.5325H14.038L13.7654 1.2599V0.775527L14.3525 0.775527L14.5224 0.945373Z" fill="white"/>
<path d="M16.0363 1.5325V2.29157L15.8665 2.29157L15.2794 1.70234L15.2793 1.5325L16.0363 1.5325Z" fill="white"/>
<path d="M15.2793 0.630843V0.775527L14.5224 0.775527V0.0185547H14.6671L15.2793 0.630843Z" fill="white"/>
<path d="M15.2793 0.775527V1.5325L15.1095 1.5325L14.5224 0.945373L14.5224 0.775527L15.2793 0.775527Z" fill="white"/>
<path d="M15.8665 2.29157H15.2793L15.2794 1.70234L15.8665 2.29157Z" fill="white"/>
<path d="M15.2793 2.29157V2.77385L14.7971 2.29157L15.2793 2.29157Z" fill="white"/>
<path d="M16.0363 3.04854L16.0363 3.53082L15.554 3.04854H16.0363Z" fill="white"/>
<path d="M16.0363 2.29157L16.0363 2.45932L15.8665 2.29157L16.0363 2.29157Z" fill="white"/>
<path d="M15.2793 1.5325L15.2794 1.70234L15.1095 1.5325L15.2793 1.5325Z" fill="white"/>
<path d="M16.0363 0.775526L16.0363 1.38991L15.424 0.775527L16.0363 0.775526Z" fill="white"/>
<path d="M16.7954 1.5325L16.7954 2.14688L16.181 1.5325H16.7954Z" fill="white"/>
<path d="M16.0363 0.318408L16.0363 0.775526L15.424 0.775527L15.2793 0.630843L15.2794 0.0185547H15.7365L16.0363 0.318408Z" fill="white"/>
<path d="M16.7954 0.775527L16.7954 1.07538L16.4955 0.775527H16.7954Z" fill="white"/>
<path d="M16.7954 1.07538L16.7954 1.5325H16.181L16.0363 1.38991L16.0363 0.775526L16.4955 0.775527L16.7954 1.07538Z" fill="white"/>
<path d="M26.7702 11.0502L26.2334 11.587L17.697 3.04854H18.7665L26.7702 11.0502Z" fill="white"/>
<path d="M18.0095 2.29157L16.938 2.29157L16.7954 2.14688L16.7954 1.5325H17.2525L18.0095 2.29157Z" fill="white"/>
<path d="M18.7665 3.04854H17.697L16.938 2.29157L18.0095 2.29157L18.7665 3.04854Z" fill="white"/>
<path d="M17.2525 1.5325H16.7954L16.7954 1.07538L17.2525 1.5325Z" fill="white"/>
<path d="M16.4955 0.775527L16.0363 0.775526L16.0363 0.318408L16.4955 0.775527Z" fill="white"/>
<path d="M27.3032 11.5863L26.768 12.1216L27.3032 12.6569L27.8385 12.1216L27.3032 11.5863Z" fill="white"/>
<path d="M25.6987 12.1217L25.1619 12.6564L16.7954 4.28989V3.21839L25.6987 12.1217Z" fill="white"/>
<path d="M16.7954 3.21839V4.28989L16.0363 3.53082L16.0363 3.04854H16.6255L16.7954 3.21839Z" fill="white"/>
<path d="M14.5224 1.5325V2.01688L14.038 1.5325H14.5224Z" fill="white"/>
<path d="M14.5224 2.01688L14.5224 2.29157H13.7654V1.5325H14.038L14.5224 2.01688Z" fill="white"/>
<path d="M36.6004 2.29157L35.8434 3.04854H34.7719L35.5289 2.29157H36.6004Z" fill="white"/>
<path d="M37.3574 1.5325L36.6004 2.29157H35.5289L36.2859 1.5325H37.3574Z" fill="white"/>
<path d="M37.7956 0.775526V1.09635L37.3574 1.5325H36.2859L37.0428 0.775526H37.7956Z" fill="white"/>
<path d="M38.5526 0.0185547V0.339377L38.1143 0.775527L37.7956 0.775526L37.7956 0.0248453L37.8019 0.0185547H38.5526Z" fill="white"/>
<path d="M37.7956 0.0248453L37.7956 0.775526H37.0428L37.7956 0.0248453Z" fill="white"/>
<path d="M25.6977 12.1226L25.1625 12.6578L25.6977 13.1931L26.233 12.6578L25.6977 12.1226Z" fill="white"/>
<path d="M40.8256 0.0185547L40.8256 0.20937L40.2573 0.775527L40.0665 0.775527V0.0185547H40.8256Z" fill="white"/>
<path d="M40.0665 0.775527L40.0665 0.966342L39.5004 1.5325L39.3095 1.5325L39.3095 0.775527L40.0665 0.775527Z" fill="white"/>
<path d="M39.5004 1.5325L39.3095 1.72332L39.3095 1.5325L39.5004 1.5325Z" fill="white"/>
<path d="M39.3095 1.5325L39.3095 1.72332L38.7434 2.29157L38.5526 2.29157V1.5325L39.3095 1.5325Z" fill="white"/>
<path d="M38.4289 1.5325L37.7956 2.16785V1.5325H38.4289Z" fill="white"/>
<path d="M40.0665 0.0185547V0.775527L39.3095 0.775527V0.651811L39.9449 0.0185547H40.0665Z" fill="white"/>
<path d="M39.3095 0.775527L39.3095 1.5325L38.5526 1.5325L38.5526 1.41088L39.1858 0.775527H39.3095Z" fill="white"/>
<path d="M39.1858 0.775527L38.5526 1.41088L38.5526 0.775526L39.1858 0.775527Z" fill="white"/>
<path d="M26.7694 13.1937L26.2341 13.729L26.7694 14.2643L27.3046 13.729L26.7694 13.1937Z" fill="white"/>
<path d="M26.7689 11.0508L26.2336 11.586L26.7689 12.1213L27.3041 11.586L26.7689 11.0508Z" fill="white"/>
<path d="M36.9149 3.04854L28.3764 11.5849L27.8396 11.0502L35.8434 3.04854H36.9149Z" fill="white"/>
<path d="M27.8404 11.0507L27.3051 11.5859L27.8404 12.1212L28.3756 11.5859L27.8404 11.0507Z" fill="white"/>
<path d="M37.6719 2.29157L36.9149 3.04854H35.8434L36.6004 2.29157H37.6719Z" fill="white"/>
<path d="M37.7956 1.5325V2.16785L37.6719 2.29157H36.6004L37.3574 1.5325H37.7956Z" fill="white"/>
<path d="M38.1143 0.775527L37.7956 1.09635V0.775526L38.1143 0.775527Z" fill="white"/>
<path d="M38.5526 0.775526L38.5526 1.41088L38.4289 1.5325H37.7956L37.7956 1.09635L38.1143 0.775527L38.5526 0.775526Z" fill="white"/>
<path d="M37.7956 1.09635L37.7956 1.5325H37.3574L37.7956 1.09635Z" fill="white"/>
<path d="M39.3095 0.0185547L39.3095 0.651811L39.1858 0.775527L38.5526 0.775526V0.339377L38.8734 0.0185547H39.3095Z" fill="white"/>
<path d="M38.5526 0.339377V0.775526L38.1143 0.775527L38.5526 0.339377Z" fill="white"/>
<path d="M26.2335 12.6566L25.6983 13.1918L26.2335 13.7271L26.7688 13.1918L26.2335 12.6566Z" fill="white"/>
<path d="M40.5718 1.5325L40.0665 2.03784L40.0665 1.5325H40.5718Z" fill="white"/>
<path d="M40.2573 0.775527L40.0665 0.966342L40.0665 0.775527L40.2573 0.775527Z" fill="white"/>
<path d="M40.0665 0.966342V1.5325H39.5004L40.0665 0.966342Z" fill="white"/>
<path d="M40.8256 0.775527L40.8256 1.28087L40.5718 1.5325H40.0665V0.966342L40.2573 0.775527H40.8256Z" fill="white"/>
<path d="M37.7956 3.23936V4.31086L29.4479 12.6564L28.9111 12.1217L37.7956 3.23936Z" fill="white"/>
<path d="M27.3037 13.7294L26.7684 14.2646L27.3037 14.7999L27.8389 14.2646L27.3037 13.7294Z" fill="white"/>
<path d="M27.8407 13.1935L27.3054 13.7288L27.8407 14.264L28.3759 13.7288L27.8407 13.1935Z" fill="white"/>
<path d="M28.3748 12.6576L27.8395 13.1929L28.3748 13.7281L28.9101 13.1929L28.3748 12.6576Z" fill="white"/>
<path d="M28.912 12.122L28.3767 12.6572L28.912 13.1925L29.4472 12.6572L28.912 12.122Z" fill="white"/>
<path d="M40.0665 2.03784V2.29157L39.8128 2.29157L40.0665 2.03784Z" fill="white"/>
<path d="M40.0665 2.29157V3.04854H39.3095L39.3095 2.79482L39.8128 2.29157L40.0665 2.29157Z" fill="white"/>
<path d="M39.0558 3.04854L38.5526 3.55179V3.04854H39.0558Z" fill="white"/>
<path d="M38.5526 2.48238V3.04854H37.9843L38.5526 2.48238Z" fill="white"/>
<path d="M39.8128 2.29157L39.3095 2.79482L39.3095 2.29157L39.8128 2.29157Z" fill="white"/>
<path d="M38.7434 2.29157L38.5526 2.48238V2.29157L38.7434 2.29157Z" fill="white"/>
<path d="M39.3095 2.79482L39.3095 3.04854H39.0558L39.3095 2.79482Z" fill="white"/>
<path d="M39.3095 2.29157L39.3095 2.79482L39.0558 3.04854H38.5526V2.48238L38.7434 2.29157H39.3095Z" fill="white"/>
<path d="M16.7954 2.61239V11.3168L16.0363 10.5598V1.85332L16.7954 2.61239Z" fill="white"/>
<path d="M14.5224 1.37104V9.04376L13.7654 8.28679V1.37104H14.5224Z" fill="white"/>
<path d="M3.37118 2.29157L3.24957 2.29157V2.16785L3.37118 2.29157Z" fill="white"/>
<path d="M13.7654 10.5407V11.6122L5.19966 3.04854H6.27116L13.7654 10.5407Z" fill="white"/>
<path d="M6.27116 3.04854H5.19966L4.4427 2.29157H5.5142L6.27116 3.04854Z" fill="white"/>
<path d="M5.5142 2.29157H4.4427L3.68572 1.5325H4.75722L5.5142 2.29157Z" fill="white"/>
<path d="M4.75722 1.5325H3.68572L3.24956 1.09635L3.24957 0.775527L3.99814 0.775526L4.75722 1.5325Z" fill="white"/>
<path d="M3.99814 0.775526L3.24957 0.775527V0.0248453L3.99814 0.775526Z" fill="white"/>
<path d="M16.7954 14.6422V15.7137L16.0363 14.9567V13.8852L16.7954 14.6422Z" fill="white"/>
<path d="M16.0363 13.8852V14.9567L15.2794 14.1976L15.2793 13.1261L16.0363 13.8852Z" fill="white"/>
<path d="M40.7564 37.5338L40.0665 37.5338V36.8439L40.7564 37.5338Z" fill="white"/>
<path d="M40.8256 37.6009L40.8256 38.2907H40.4439L40.0665 37.9154V37.5338L40.7564 37.5338L40.8256 37.6009Z" fill="white"/>
<path d="M38.5526 35.3278L38.5526 36.3993L37.7956 35.6424V34.5709L38.5526 35.3278Z" fill="white"/>
<path d="M16.0363 14.9567L16.0363 16.0261L15.2794 15.2691V14.1976L16.0363 14.9567Z" fill="white"/>
<path d="M16.7954 15.7137V16.7852L16.0363 16.0261L16.0363 14.9567L16.7954 15.7137Z" fill="white"/>
<path d="M19.2152 18.1356H18.1458L16.7954 16.7852V15.7137L19.2152 18.1356Z" fill="white"/>
<path d="M21.4882 20.4086H20.4167L19.6597 19.6495H20.7312L21.4882 20.4086Z" fill="white"/>
<path d="M20.7312 19.6495H19.6597L18.9028 18.8925H19.9743L20.7312 19.6495Z" fill="white"/>
<path d="M19.9743 18.8925H18.9028L18.1458 18.1356H19.2152L19.9743 18.8925Z" fill="white"/>
<path d="M21.3582 18.1356H20.2867L16.7954 14.6422V13.5707L21.3582 18.1356Z" fill="white"/>
<path d="M37.7956 34.5709V35.6424L23.3167 21.1655H24.3882L37.7956 34.5709Z" fill="white"/>
<path d="M24.3882 21.1655H23.3167L22.5597 20.4086H23.6312L24.3882 21.1655Z" fill="white"/>
<path d="M23.6312 20.4086H22.5597L21.8027 19.6495H22.8742L23.6312 20.4086Z" fill="white"/>
<path d="M22.8742 19.6495H21.8027L21.0458 18.8925H22.1152L22.8742 19.6495Z" fill="white"/>
<path d="M22.1152 18.8925H21.0458L20.2867 18.1356H21.3582L22.1152 18.8925Z" fill="white"/>
<path d="M39.3095 18.1356H38.5526L38.5526 18.8925H39.3095L39.3095 18.1356Z" fill="white"/>
<path d="M39.3095 18.8925H38.5526V19.6495L39.3095 19.6495V18.8925Z" fill="white"/>
<path d="M39.3095 19.6495L38.5526 19.6495V20.4065H39.3095L39.3095 19.6495Z" fill="white"/>
<path d="M40.0665 19.6495H39.3095L39.3095 20.4065H40.0665V19.6495Z" fill="white"/>
<path d="M40.0665 20.4086H39.3095V21.1655H40.0665V20.4086Z" fill="white"/>
<path d="M40.0665 21.1655V36.7768L39.9994 36.7768L39.3095 36.0869L39.3095 21.1655H40.0665Z" fill="white"/>
<path d="M39.3095 20.4086H38.5526V21.1655H39.3095V20.4086Z" fill="white"/>
<path d="M39.3095 21.1655L39.3095 36.0869L38.5526 35.3278V21.1655H39.3095Z" fill="white"/>
<path d="M0.976552 0.0185547V0.775527L0.785736 0.775527L0.21958 0.20937L0.219588 0.0185547H0.976552Z" fill="white"/>
<path d="M0.976552 2.29157H0.21958V3.04854H0.976552V2.29157Z" fill="white"/>
<path d="M38.3009 38.2907H37.7956V37.7854L38.3009 38.2907Z" fill="white"/>
<path d="M39.0579 39.0498H38.5526V38.5424L39.0579 39.0498Z" fill="white"/>
<path d="M1.73352 0.651811V0.775527L0.976552 0.775527V0.0185547H1.09817L1.73352 0.651811Z" fill="white"/>
<path d="M1.73352 1.5325L1.73353 1.72331L1.54272 1.5325H1.73352Z" fill="white"/>
<path d="M1.73352 0.775527V1.5325H1.54272L0.976562 0.966342L0.976552 0.775527L1.73352 0.775527Z" fill="white"/>
<path d="M2.49051 0.775526L2.49049 1.41088L1.85724 0.775527L2.49051 0.775526Z" fill="white"/>
<path d="M40.8256 39.7439L40.8256 39.8068H40.0665V39.0498H40.1294L40.8256 39.7439Z" fill="white"/>
<path d="M38.5526 36.7768V37.4708L37.8585 36.7768H38.5526Z" fill="white"/>
<path d="M39.3095 37.5338V38.2278L38.6155 37.5338H39.3095Z" fill="white"/>
<path d="M40.0665 37.9154L40.0665 38.2907H39.3724L39.3095 38.2278V37.5338H39.687L40.0665 37.9154Z" fill="white"/>
<path d="M40.0665 38.9869V39.0498H39.3095V38.2907H39.3724L40.0665 38.9869Z" fill="white"/>
<path d="M3.24956 1.5325L3.24957 2.16785L2.61422 1.5325H3.24956Z" fill="white"/>
<path d="M2.4905 0.339377L2.49051 0.775526L1.85724 0.775527L1.73352 0.651811L1.73352 0.0185547H2.16968L2.4905 0.339377Z" fill="white"/>
<path d="M3.24957 0.775527L3.24956 1.09635L2.92875 0.775527H3.24957Z" fill="white"/>
<path d="M3.24956 1.09635L3.24956 1.5325H2.61422L2.49049 1.41088L2.49051 0.775526L2.92875 0.775527L3.24956 1.09635Z" fill="white"/>
<path d="M4.4427 2.29157L3.37118 2.29157L3.24957 2.16785L3.24956 1.5325H3.68572L4.4427 2.29157Z" fill="white"/>
<path d="M3.68572 1.5325H3.24956L3.24956 1.09635L3.68572 1.5325Z" fill="white"/>
<path d="M5.19966 3.04854L4.12816 3.04854L3.37118 2.29157L4.4427 2.29157L5.19966 3.04854Z" fill="white"/>
<path d="M13.7654 11.6122L13.7654 12.6837L4.12816 3.04854L5.19966 3.04854L13.7654 11.6122Z" fill="white"/>
<path d="M14.5224 12.3692V13.4407L13.7654 12.6837L13.7654 11.6122L14.5224 12.3692Z" fill="white"/>
<path d="M15.2793 13.1261L15.2794 14.1976L14.5224 13.4407V12.3692L15.2793 13.1261Z" fill="white"/>
<path d="M37.7956 35.6424L37.7956 36.7139L22.2473 21.1655H23.3167L37.7956 35.6424Z" fill="white"/>
<path d="M40.4439 38.2907H40.0665L40.0665 37.9154L40.4439 38.2907Z" fill="white"/>
<path d="M40.0665 38.2907V38.9869L39.3724 38.2907H40.0665Z" fill="white"/>
<path d="M40.8256 38.6724L40.8256 39.0498H40.1294L40.0665 38.9869V38.2907H40.4439L40.8256 38.6724Z" fill="white"/>
<path d="M38.9279 36.7768L38.5526 36.7768V36.3993L38.9279 36.7768Z" fill="white"/>
<path d="M38.5526 36.3993V36.7768H37.8585L37.7956 36.7139L37.7956 35.6424L38.5526 36.3993Z" fill="white"/>
<path d="M40.0665 37.5338V37.9154L39.687 37.5338L40.0665 37.5338Z" fill="white"/>
<path d="M39.687 37.5338H39.3095V37.1563L39.687 37.5338Z" fill="white"/>
<path d="M39.3095 36.7768V37.1563L38.9279 36.7768H39.3095Z" fill="white"/>
<path d="M40.0665 36.8439V37.5338L39.687 37.5338L39.3095 37.1563V36.7768H39.9994L40.0665 36.8439Z" fill="white"/>
<path d="M20.2867 18.1356H19.2152L16.7954 15.7137V14.6422L20.2867 18.1356Z" fill="white"/>
<path d="M18.9028 18.8925H17.8312L17.0743 18.1356H18.1458L18.9028 18.8925Z" fill="white"/>
<path d="M23.3167 21.1655H22.2473L21.4882 20.4086H22.5597L23.3167 21.1655Z" fill="white"/>
<path d="M21.8027 19.6495H20.7312L19.9743 18.8925H21.0458L21.8027 19.6495Z" fill="white"/>
<path d="M22.5597 20.4086H21.4882L20.7312 19.6495H21.8027L22.5597 20.4086Z" fill="white"/>
<path d="M21.0458 18.8925H19.9743L19.2152 18.1356H20.2867L21.0458 18.8925Z" fill="white"/>
<path d="M2.92875 0.775527L2.49051 0.775526L2.4905 0.339377L2.92875 0.775527Z" fill="white"/>
<path d="M0.976562 1.5325L0.976552 2.03784L0.471205 1.5325H0.976562Z" fill="white"/>
<path d="M1.54272 1.5325H0.976562V0.966342L1.54272 1.5325Z" fill="white"/>
<path d="M0.976552 0.775527L0.976562 0.966342L0.785736 0.775527L0.976552 0.775527Z" fill="white"/>
<path d="M0.976562 0.966342V1.5325H0.471205L0.21958 1.28087V0.775527H0.785736L0.976562 0.966342Z" fill="white"/>
<path d="M13.7654 13.7552V14.8267L3.24957 4.31086L3.24956 3.23936L13.7654 13.7552Z" fill="white"/>
<path d="M3.24956 3.23936L3.24957 4.31086L2.4905 3.55179V3.04854H3.05876L3.24956 3.23936Z" fill="white"/>
<path d="M13.7654 12.6837L13.7654 13.7552L3.24956 3.23936V3.04854L4.12816 3.04854L13.7654 12.6837Z" fill="white"/>
<path d="M4.12816 3.04854L3.24956 3.04854L3.24957 2.29157L3.37118 2.29157L4.12816 3.04854Z" fill="white"/>
<path d="M2.29968 2.29157H1.73353V1.72331L2.29968 2.29157Z" fill="white"/>
<path d="M2.4905 3.04854V3.55179L1.98724 3.04854H2.4905Z" fill="white"/>
<path d="M2.49049 2.29157L2.4905 2.48029L2.29968 2.29157H2.49049Z" fill="white"/>
<path d="M3.24956 3.04854V3.23936L3.05876 3.04854H3.24956Z" fill="white"/>
<path d="M3.24957 2.29157L3.24956 3.04854H1.98724L1.73352 2.79482L1.73353 2.29157H2.29968L2.4905 2.48029L2.49049 2.29157H3.24957Z" fill="white"/>
<path d="M1.23028 2.29157H0.976552V2.03784L1.23028 2.29157Z" fill="white"/>
<path d="M1.73353 2.29157L1.73352 2.79482L1.23028 2.29157H1.73353Z" fill="white"/>
<path d="M1.98724 3.04854H1.73352V2.79482L1.98724 3.04854Z" fill="white"/>
<path d="M1.73352 2.79482V3.04854H0.976552V2.29157H1.23028L1.73352 2.79482Z" fill="white"/>
<path d="M36.787 36.7768H35.7155L20.1042 21.1655H21.1758L36.787 36.7768Z" fill="white"/>
<path d="M37.544 37.5338H36.4725L35.7155 36.7768H36.787L37.544 37.5338Z" fill="white"/>
<path d="M37.7956 37.7854V38.2907H37.2294L36.4725 37.5338H37.544L37.7956 37.7854Z" fill="white"/>
<path d="M38.5526 38.5424V39.0498H37.9885L37.7956 38.8569V38.2907H38.3009L38.5526 38.5424Z" fill="white"/>
<path d="M37.7956 38.2907V38.8569L37.2294 38.2907H37.7956Z" fill="white"/>
<path d="M39.3095 39.0498L39.3095 39.2993L39.0579 39.0498H39.3095Z" fill="white"/>
<path d="M39.3095 39.2993V39.8068L38.7455 39.8068L38.5526 39.6139V39.0498H39.0579L39.3095 39.2993Z" fill="white"/>
<path d="M38.5526 39.0498V39.6139L37.9885 39.0498H38.5526Z" fill="white"/>
<path d="M18.1458 18.1356H17.0743L16.7954 17.8567L16.7954 16.7852L18.1458 18.1356Z" fill="white"/>
<path d="M16.7954 16.7852L16.7954 17.8567L16.0363 17.0976L16.0363 16.0261L16.7954 16.7852Z" fill="white"/>
<path d="M16.0363 16.0261L16.0363 17.0976L15.2793 16.3406L15.2794 15.2691L16.0363 16.0261Z" fill="white"/>
<path d="M15.2794 15.2691L15.2793 16.3406L14.5224 15.5837V14.5122L15.2794 15.2691Z" fill="white"/>
<path d="M14.5224 13.4407V14.5122L13.7654 13.7552L13.7654 12.6837L14.5224 13.4407Z" fill="white"/>
<path d="M14.5224 14.5122V15.5837L13.7654 14.8267V13.7552L14.5224 14.5122Z" fill="white"/>
<path d="M21.1758 21.1655H20.1042L19.3473 20.4086H20.4167L21.1758 21.1655Z" fill="white"/>
<path d="M20.4167 20.4086H19.3473L18.5882 19.6495H19.6597L20.4167 20.4086Z" fill="white"/>
<path d="M19.6597 19.6495H18.5882L17.8312 18.8925H18.9028L19.6597 19.6495Z" fill="white"/>
<path d="M16.5933 37.5317H15.8363V38.2886H16.5933V37.5317Z" fill="white"/>
<path d="M0.21958 3.04854H0.976552M0.21958 3.04854V18.1356M0.21958 3.04854H0.150391M0.21958 3.04854V2.29157M0.976552 3.04854V18.1356M0.976552 3.04854H1.73352M0.976552 3.04854V2.29157M0.976552 18.1356H0.21958M0.976552 18.1356V18.8925M0.976552 18.1356L1.73352 18.1356M0.21958 18.1356V18.8925M0.21958 18.1356L0.171362 18.1356M0.21958 39.0498H0.976552M0.21958 39.0498V39.8068M0.21958 39.0498H0.192334M0.976552 39.0498V39.8068M0.976552 39.0498H1.73353M0.976552 39.8068H0.21958M0.976552 39.8068L0.976562 39.9997M0.976552 39.8068H1.73352M0.21958 39.8068V39.9997M0.21958 39.8068H0.192334M0.21958 37.5338H0.976552M0.21958 37.5338V38.2907M0.21958 37.5338V36.7768M0.21958 37.5338H0.192334M0.976552 37.5338V38.2907M0.976552 37.5338V36.7768M0.976552 37.5338H1.73352M0.976552 38.2907H0.21958M0.976552 38.2907V39.0477M0.976552 38.2907H1.73352M0.21958 38.2907V39.0477H0.976552M0.21958 38.2907H0.192334M0.976552 39.0477H1.73353M0.21958 36.7768H0.976552M0.21958 36.7768V21.1655M0.21958 36.7768H0.192334M0.976552 36.7768V21.1655M0.976552 36.7768H1.73352M0.21958 21.1655H0.976552M0.21958 21.1655V20.4086M0.21958 21.1655H0.171362M0.976552 21.1655V20.4086M0.976552 21.1655H1.73352M0.21958 20.4086H0.976552M0.21958 20.4086H0.171362M0.976552 20.4086H1.73352M0.21958 19.6495H0.976552M0.21958 19.6495V20.4065H0.976552M0.21958 19.6495V18.8925M0.21958 19.6495H0.171362M0.976552 19.6495V20.4065M0.976552 19.6495V18.8925M0.976552 19.6495L1.73352 19.6495M0.976552 20.4065H1.73352M0.21958 18.8925H0.976552M0.21958 18.8925H0.171362M0.976552 18.8925H1.73352M0.785736 0.775527H0.21958M0.785736 0.775527L0.21958 0.20937M0.785736 0.775527L0.976552 0.775527M0.785736 0.775527L0.976562 0.966342M0.21958 0.775527V0.20937M0.21958 0.775527L0.150391 0.775526M0.21958 0.775527V1.28087M0.21958 0.20937L0.219588 0.0185547M0.976552 2.03784V2.29157M0.976552 2.03784L0.471205 1.5325M0.976552 2.03784L1.23028 2.29157M0.976552 2.03784L0.976562 1.5325M0.976552 2.29157H0.21958M0.976552 2.29157H1.23028M0.21958 2.29157V1.5325M0.21958 2.29157L0.150391 2.29157M0.21958 1.5325H0.471205M0.21958 1.5325V1.28087M0.21958 1.5325H0.150391M0.471205 1.5325L0.21958 1.28087M0.471205 1.5325H0.976562M2.4905 39.9997V39.8068M2.4905 39.8068H3.24747V39.0498H2.4905M2.4905 39.8068V39.0498M2.4905 39.8068H1.73352M1.73352 39.9997V39.8068M1.73352 39.8068L1.73353 39.0498M3.24957 4.31086V18.1356H2.4905M3.24957 4.31086L2.4905 3.55179M3.24957 4.31086L13.7654 14.8267M3.24957 4.31086L3.24956 3.23936M2.4905 18.1356V3.55179M2.4905 18.1356H1.73352M2.4905 18.1356H3.24747V18.8925M2.4905 18.1356L2.49049 18.8925M2.4905 3.55179L1.98724 3.04854M2.4905 3.55179V3.04854M1.73352 18.1356V3.04854M1.73352 18.1356V18.8925M1.73352 3.04854H1.98724M1.73352 3.04854V2.79482M1.98724 3.04854H2.4905M1.98724 3.04854H3.24956M1.98724 3.04854L1.73352 2.79482M15.2794 18.6783V20.4732M15.2794 18.6783L14.5224 17.9213M15.2794 18.6783L16.0363 19.4353M15.2794 20.4732H14.5224M15.2794 20.4732L16.0363 20.4732M14.5224 20.4732V17.9213M14.5224 20.4732H13.7654V17.1644L14.5224 17.9213M16.0363 19.4353V20.4732M16.0363 19.4353L16.7954 20.1943V20.4732L16.0363 20.4732M1.73352 18.8925H2.49049M1.73352 18.8925V19.6495M2.49049 18.8925V19.6495M2.49049 18.8925H3.24747M2.49049 19.6495H1.73352M2.49049 19.6495V20.4065M2.49049 19.6495H3.24747M1.73352 19.6495V20.4065M2.49049 20.4065H1.73352M2.49049 20.4065H3.24747V19.6495M1.73352 20.4086H2.49049M1.73352 20.4086V21.1655M2.49049 20.4086V21.1655M2.49049 20.4086H3.24747V21.1655M2.49049 21.1655H1.73352M2.49049 21.1655H3.24747M2.49049 21.1655V36.7768M1.73352 21.1655V36.7768M1.73352 36.7768H2.49049M1.73352 36.7768V37.5338M2.49049 36.7768V37.5338M2.49049 36.7768L3.24747 36.7768M2.49049 37.5338H1.73352M2.49049 37.5338V38.2907M2.49049 37.5338H3.24747M1.73352 37.5338V38.2907M2.49049 38.2907H1.73352M2.49049 38.2907H3.24747M2.49049 38.2907L2.4905 39.0477M1.73352 38.2907L1.73353 39.0477M3.24747 18.8925V19.6495M3.24747 21.1655V36.7768M3.24747 36.7768V37.5338M3.24747 37.5338V38.2907M3.24956 39.9997V39.8068M3.24956 39.8068H13.7654M3.24956 39.8068V39.0498H13.7654M39.3095 0.651811V0.775527M39.3095 0.651811L39.1858 0.775527M39.3095 0.651811L39.9449 0.0185547M39.3095 0.651811L39.3095 0.0185547M39.3095 0.775527H39.1858M39.3095 0.775527L39.3095 1.5325M39.3095 0.775527L40.0665 0.775527M39.1858 0.775527L38.5526 1.41088M39.1858 0.775527L38.5526 0.775526M38.5526 3.04854V3.55179M38.5526 3.04854H37.9843M38.5526 3.04854H39.0558M38.5526 3.04854V2.48238M38.5526 3.55179L37.7956 4.31086M38.5526 3.55179L38.5526 18.1356M38.5526 3.55179L39.0558 3.04854M37.7956 4.31086V3.23936M37.7956 4.31086V18.1356M37.7956 4.31086L29.4479 12.6564L28.9111 12.1217M37.7956 3.23936L37.9843 3.04854M37.7956 3.23936V3.04854M37.7956 3.23936L28.9111 12.1217M37.9843 3.04854L38.5526 2.48238M37.9843 3.04854H37.7956M16.0363 1.85332V10.5598M16.0363 1.85332L15.554 1.37104H15.2793M16.0363 1.85332L16.7954 2.61239V11.3168L16.0363 10.5598M16.0363 10.5598L15.2793 9.80283M15.2793 9.80283V1.37104M15.2793 9.80283L14.5224 9.04376M15.2793 1.37104H14.5224M26.2334 11.587L25.6987 12.1217M26.2334 11.587L17.697 3.04854M26.2334 11.587L26.7702 11.0502M25.6987 12.1217L16.7954 3.21839M25.6987 12.1217L25.1619 12.6564L16.7954 4.28989M16.7954 3.21839V3.04854M16.7954 3.21839L16.6255 3.04854M16.7954 3.21839V4.28989M16.7954 3.04854H17.697M16.7954 3.04854L16.7954 2.29157M16.7954 3.04854L16.6255 3.04854M17.697 3.04854L16.938 2.29157M17.697 3.04854H18.7665M37.7956 3.04854H36.9149M37.7956 3.04854V2.29157M28.9111 12.1217L28.3764 11.5849M28.3764 11.5849L36.9149 3.04854M28.3764 11.5849L27.8396 11.0502M36.9149 3.04854L37.6719 2.29157M36.9149 3.04854H35.8434M39.3095 38.2907V39.0498M39.3095 38.2907H38.5526M39.3095 38.2907V38.2278M39.3095 38.2907H39.3724M39.3095 39.0498H39.0579M39.3095 39.0498L39.3095 39.2993M39.3095 39.0498H40.0665M39.0579 39.0498L38.5526 38.5424M39.0579 39.0498H38.5526M39.0579 39.0498L39.3095 39.2993M38.5526 38.5424V38.2907M38.5526 38.5424L38.3009 38.2907M38.5526 38.5424V39.0498M38.5526 38.2907V37.5338M38.5526 38.2907H38.3009M39.3095 3.04854V18.1356M39.3095 3.04854H39.0558M39.3095 3.04854H40.0665M39.3095 3.04854L39.3095 2.79482M39.3095 18.1356H38.5526M39.3095 18.1356L40.0665 18.1356M39.3095 18.1356L39.3095 18.8925M38.5526 18.1356H37.7956M38.5526 18.1356L38.5526 18.8925M39.0558 3.04854L39.3095 2.79482M37.7956 18.1356V18.8925M38.5526 21.1655V35.3278M38.5526 21.1655H37.7956M38.5526 21.1655V20.4086M38.5526 21.1655H39.3095M38.5526 35.3278L37.7956 34.5709M38.5526 35.3278L38.5526 36.3993M38.5526 35.3278L39.3095 36.0869M37.7956 34.5709V21.1655M37.7956 34.5709V35.6424M37.7956 34.5709L24.3882 21.1655M37.7956 21.1655V20.4086H38.5526M40.8256 0.20937V0.775527M40.8256 0.20937L40.2573 0.775527M40.8256 0.20937L40.8256 0.0185547M40.8256 0.775527H40.2573M40.8256 0.775527L40.8507 0.775526M40.8256 0.775527L40.8256 1.28087M40.2573 0.775527L40.0665 0.775527M40.2573 0.775527L40.0665 0.966342M40.0665 3.04854H40.8235M40.0665 3.04854V18.1356M40.0665 3.04854V2.29157M40.8235 3.04854V18.1356M40.8235 3.04854V2.29157H40.0665M40.8235 18.1356H40.0665M40.8235 18.1356V18.8925M40.0665 18.1356V18.8925M40.0665 2.29157L40.8256 2.29157V1.5325M40.0665 2.29157V2.03784M40.0665 2.29157L39.8128 2.29157M40.8256 1.5325H40.5718M40.8256 1.5325V1.28087M40.0665 2.03784L40.5718 1.5325M40.0665 2.03784L40.0665 1.5325M40.0665 2.03784L39.8128 2.29157M40.5718 1.5325L40.8256 1.28087M40.5718 1.5325H40.0665M40.8256 39.0498V39.7439M40.8256 39.0498H40.1294M40.8256 39.0498L40.8256 38.6724M40.8256 39.7439L40.1294 39.0498M40.8256 39.7439L40.8256 39.8068H40.0665M40.1294 39.0498H40.0665M40.1294 39.0498L40.0665 38.9869M40.8256 37.5338V36.7768H40.0665M40.8256 37.5338H40.7564M40.8256 37.5338L40.8256 37.6009M40.7564 37.5338L40.0665 36.8439M40.7564 37.5338L40.0665 37.5338M40.7564 37.5338L40.8256 37.6009M40.0665 36.8439V36.7768M40.0665 36.8439V37.5338M40.0665 36.8439L39.9994 36.7768M40.0665 36.7768L40.8235 36.7768V21.1655M40.0665 36.7768V21.1655M40.0665 36.7768L39.9994 36.7768M40.8256 37.6009L40.8256 38.2907M40.0665 21.1655H40.8235M40.0665 21.1655V20.4086M40.0665 21.1655H39.3095M40.8235 21.1655V20.4086H40.0665M38.5526 20.4086H39.3095M37.7956 19.6495H38.5526M37.7956 19.6495V20.4065H38.5526M37.7956 19.6495V18.8925M38.5526 19.6495V20.4065M38.5526 19.6495V18.8925M38.5526 19.6495L39.3095 19.6495M38.5526 20.4065H39.3095M37.7956 18.8925H38.5526M38.5526 18.8925H39.3095M40.8235 18.8925H40.0665M40.8235 18.8925V19.6495M40.0665 18.8925V19.6495M40.0665 18.8925H39.3095M40.8235 19.6495H40.0665M40.8235 19.6495V20.4065H40.0665M40.0665 19.6495V20.4065M40.0665 19.6495H39.3095M40.0665 20.4065H39.3095M40.0665 20.4086H39.3095M40.8256 38.2907V38.6724M40.8256 38.2907H40.4439M40.8256 38.6724L40.4439 38.2907M40.4439 38.2907L40.0665 37.9154M40.4439 38.2907H40.0665M14.5224 21.2155H13.7654V22.3892H14.5224V21.2155ZM14.5224 21.2155H15.2794M14.5224 21.2155L14.5224 21.9725H15.2794M14.5224 18.9425H13.7654V19.6995M14.5224 18.9425V19.6995M14.5224 18.9425H15.2794V19.6995M14.5224 19.6995H13.7654M14.5224 19.6995V20.4564M14.5224 19.6995H15.2794M13.7654 19.6995V20.4564M14.5224 20.4564H13.7654M14.5224 20.4564V21.2134M14.5224 20.4564L15.2794 20.4564M13.7654 20.4564V21.2134H14.5224M14.5224 21.2134H15.2794M3.24956 37.5338H13.7654M3.24956 37.5338V38.2907M3.24956 37.5338V36.7768H13.7654M13.7654 37.5338V38.2907M13.7654 37.5338V36.7768M13.7654 37.5338H14.5224M13.7654 38.2907H3.24956M13.7654 38.2907H14.5224M13.7654 38.2907V39.0477M3.24956 38.2907V39.0477H13.7654M13.7654 36.7768H14.5224M14.5224 36.7768V37.5338M14.5224 36.7768H15.2794V39.0498M14.5224 36.7768L14.5224 39.0498M14.5224 37.5338V38.2907M14.5224 38.2907V39.0477H13.7654M39.3095 38.2278L38.6155 37.5338M39.3095 38.2278V37.5338M39.3095 38.2278L39.3724 38.2907M38.5526 37.5338H38.6155M38.5526 37.5338V37.4708M38.5526 37.5338H37.7956M38.6155 37.5338H39.3095M38.6155 37.5338L38.5526 37.4708M39.3095 36.0869V36.7768M39.3095 36.0869L39.9994 36.7768M39.3095 36.0869L39.3095 21.1655M39.3095 36.7768H38.9279M39.3095 36.7768H39.9994M39.3095 36.7768V37.1563M38.9279 36.7768L38.5526 36.3993M38.9279 36.7768L38.5526 36.7768M38.9279 36.7768L39.3095 37.1563M38.5526 36.3993L37.7956 35.6424M38.5526 36.3993V36.7768M39.3095 37.1563V37.5338M39.3095 37.1563L39.687 37.5338M39.3095 37.5338H39.687M38.5526 37.4708V36.7768M38.5526 37.4708L37.8585 36.7768M38.5526 36.7768H37.8585M1.73353 39.0498H2.4905M13.7654 39.0498V39.8068M13.7654 39.0498H14.5224M13.7654 39.8068H14.5224M15.2794 39.0498H14.5224M15.2794 39.0498V39.8068M15.2794 39.0498H16.0363V39.8068H15.2794M14.5224 39.0498V39.8068M15.2794 39.8068H14.5224M16.0363 21.2155H16.7933V21.9725H16.0363M16.0363 21.2155V21.9725M16.0363 21.2155H15.2794M16.0363 21.9725H15.2794M40.0665 39.0498V39.8068M40.0665 39.0498V38.9869M40.0665 39.8068H39.817M39.817 39.8068L39.3095 39.2993M39.817 39.8068L39.3095 39.8068M39.3095 39.2993V39.8068M39.3095 39.8068L38.7455 39.8068L38.5526 39.6139M37.7956 36.7139V36.7768M37.7956 36.7139L22.2473 21.1655M37.7956 36.7139L37.7956 35.6424M37.7956 36.7139L37.8585 36.7768M37.7956 36.7768H36.787M37.7956 36.7768L37.7956 37.5338M37.7956 36.7768L37.8585 36.7768M36.787 36.7768L21.1758 21.1655M36.787 36.7768L37.544 37.5338M36.787 36.7768H35.7155M21.1758 21.1655H22.2473M21.1758 21.1655L20.4167 20.4086M21.1758 21.1655H20.1042M22.2473 21.1655L21.4882 20.4086M22.2473 21.1655H23.3167M37.7956 37.5338H37.544M37.7956 37.5338L37.7956 37.7854M37.544 37.5338L37.7956 37.7854M37.544 37.5338H36.4725M38.3009 38.2907L37.7956 37.7854M38.3009 38.2907H37.7956M37.7956 37.7854V38.2907M3.24747 38.2907V39.0477H2.4905M2.4905 39.0477H1.73353M15.2794 20.4564V21.2134M15.2794 20.4564H16.0363M15.2794 20.4564V19.6995M15.2794 21.2134H16.0363M15.2794 21.2155V21.9725M16.0363 20.4564V21.2134M16.0363 20.4564V19.6995H15.2794M16.0363 20.4564H16.7933V21.2134H16.0363M20.4167 20.4086H21.4882M20.4167 20.4086L19.6597 19.6495M20.4167 20.4086H19.3473M21.4882 20.4086L20.7312 19.6495M21.4882 20.4086H22.5597M1.85724 0.775527H1.73352M1.85724 0.775527L1.73352 0.651811M1.85724 0.775527L2.49049 1.41088M1.85724 0.775527L2.49051 0.775526M1.73352 0.775527V0.651811M1.73352 0.775527V1.5325M1.73352 0.775527L0.976552 0.775527M1.73352 0.651811L1.73352 0.0185547M1.73352 0.651811L1.09817 0.0185547M3.24957 0.0248453V0.775527M3.24957 0.0248453L3.24118 0.0185547H2.4905M3.24957 0.0248453L3.99814 0.775526M3.24957 0.775527H2.92875M3.24957 0.775527L3.24956 1.09635M3.24957 0.775527L3.99814 0.775526M2.92875 0.775527L2.4905 0.339377M2.92875 0.775527L3.24956 1.09635M2.92875 0.775527L2.49051 0.775526M2.4905 0.339377V0.0185547M2.4905 0.339377L2.16968 0.0185547M2.4905 0.339377L2.49051 0.775526M2.4905 0.0185547H2.16968M2.16968 0.0185547H1.73352M1.73352 0.0185547H1.09817M1.09817 0.0185547H0.976552M0.219588 0.0185547H0.150391M0.219588 0.0185547H0.976552M40.8507 0.0185547H40.8256M40.8256 0.0185547H40.0665M15.424 0.775527H15.2793M15.424 0.775527L15.2793 0.630843M15.424 0.775527L16.0363 1.38991M15.424 0.775527L16.0363 0.775526M15.2793 0.775527V0.630843M15.2793 0.775527V1.5325M15.2793 0.775527L14.5224 0.775527M15.2793 0.630843L15.2794 0.0185547M15.2793 0.630843L14.6671 0.0185547M16.7954 0.0185547V0.775527M16.7954 0.0185547H16.0363M16.7954 0.0185547H16.808L17.567 0.775526M16.7954 0.775527H16.4955M16.7954 0.775527L16.7954 1.07538M16.7954 0.775527L17.567 0.775526M16.4955 0.775527L16.0363 0.318408M16.4955 0.775527L16.7954 1.07538M16.4955 0.775527L16.0363 0.775526M16.0363 0.318408V0.0185547M16.0363 0.318408L15.7365 0.0185547M16.0363 0.318408L16.0363 0.775526M16.0363 0.0185547H15.7365M15.7365 0.0185547H15.2794M38.8734 0.0185547L38.5526 0.339377M38.8734 0.0185547H38.5526M38.8734 0.0185547H39.3095M38.5526 0.339377V0.0185547M38.5526 0.339377L38.1143 0.775527M38.5526 0.339377V0.775526M38.5526 0.0185547H37.8019L37.7956 0.0248453M39.9449 0.0185547H39.3095M39.9449 0.0185547H40.0665M15.2794 0.0185547H14.6671M14.6671 0.0185547H14.5224M39.3095 1.72332V2.29157M39.3095 1.72332L38.7434 2.29157M39.3095 1.72332L39.5004 1.5325M39.3095 1.72332L39.3095 1.5325M39.3095 2.29157H38.7434M39.3095 2.29157L39.8128 2.29157M39.3095 2.29157L39.3095 2.79482M38.7434 2.29157L38.5526 2.29157M38.7434 2.29157L38.5526 2.48238M40.0665 1.5325H39.5004M40.0665 1.5325V0.966342M39.8128 2.29157L39.3095 2.79482M39.5004 1.5325L40.0665 0.966342M39.5004 1.5325L39.3095 1.5325M1.73353 1.72331V2.29157M1.73353 1.72331L1.54272 1.5325M1.73353 1.72331L2.29968 2.29157M1.73353 1.72331L1.73352 1.5325M1.73353 2.29157H1.23028M1.73353 2.29157H2.29968M1.73353 2.29157L1.73352 2.79482M1.23028 2.29157L1.73352 2.79482M0.976562 1.5325H1.54272M0.976562 1.5325V0.966342M1.54272 1.5325H1.73352M1.54272 1.5325L0.976562 0.966342M13.7654 2.29157H14.5224M13.7654 2.29157V3.04854H14.5224M13.7654 2.29157V1.5325M14.5224 2.29157V3.04854M14.5224 2.29157L14.7971 2.29157M14.5224 2.29157L14.5224 2.01688M14.5224 3.04854H15.2794M14.038 1.5325H13.7654M14.038 1.5325L13.7654 1.2599M14.038 1.5325H14.5224M14.038 1.5325L14.5224 2.01688M13.7654 1.5325V1.2599M13.7654 1.2599V0.775527M2.49049 1.5325V2.29157M2.49049 1.5325H1.73352M2.49049 1.5325V1.41088M2.49049 1.5325H2.61422M2.49049 2.29157H2.29968M2.49049 2.29157H3.24957M2.49049 2.29157L2.4905 2.48029L2.29968 2.29157M2.49049 1.41088L2.61422 1.5325M2.49049 1.41088L2.49051 0.775526M3.24957 2.16785V2.29157M3.24957 2.16785L2.61422 1.5325M3.24957 2.16785L3.37118 2.29157M3.24957 2.16785L3.24956 1.5325M3.24957 2.29157L3.37118 2.29157M3.24957 2.29157L3.24956 3.04854M2.61422 1.5325H3.24956M16.0363 2.45932V3.04854M16.0363 2.45932L15.8665 2.29157M16.0363 2.45932L16.6255 3.04854M16.0363 2.45932L16.0363 2.29157M16.0363 3.04854H15.554M16.0363 3.04854H16.6255M16.0363 3.04854L16.0363 3.53082M15.554 3.04854L15.2793 2.77385M15.554 3.04854H15.2794M15.554 3.04854L16.0363 3.53082M15.2793 2.77385V2.29157M15.2793 2.77385L15.2794 3.04854M15.2793 2.77385L14.7971 2.29157M15.2793 2.29157H15.8665M15.2793 2.29157L15.2794 1.70234M15.2793 2.29157L14.7971 2.29157M15.8665 2.29157L16.0363 2.29157M15.8665 2.29157L15.2794 1.70234M15.2794 1.70234L15.1095 1.5325M15.2794 1.70234L15.2793 1.5325M14.7971 2.29157L14.5224 2.01688M14.5224 2.01688V1.5325M14.5224 1.5325H15.1095M14.5224 1.5325V0.945373M15.1095 1.5325L14.5224 0.945373M15.1095 1.5325L15.2793 1.5325M14.5224 0.945373L14.5224 0.775527M14.5224 0.945373L14.3525 0.775527M16.7954 2.14688V2.29157M16.7954 2.14688L16.181 1.5325M16.7954 2.14688L16.938 2.29157M16.7954 2.14688L16.7954 1.5325M16.7954 2.29157H16.0363M16.7954 2.29157L16.938 2.29157M16.0363 2.29157V1.5325M16.0363 1.5325H16.181M16.0363 1.5325L16.0363 1.38991M16.0363 1.5325L15.2793 1.5325M16.181 1.5325L16.0363 1.38991M16.181 1.5325H16.7954M16.0363 1.38991L16.0363 0.775526M38.5526 2.29157V2.48238M38.5526 2.29157H37.7956M38.5526 2.29157V1.5325M37.7956 2.29157V2.16785M37.7956 2.29157H37.6719M38.5526 1.5325H38.4289M38.5526 1.5325L38.5526 1.41088M38.5526 1.5325L39.3095 1.5325M37.7956 2.16785L38.4289 1.5325M37.7956 2.16785L37.6719 2.29157M37.7956 2.16785V1.5325M38.4289 1.5325L38.5526 1.41088M38.4289 1.5325H37.7956M37.6719 2.29157H36.6004M38.5526 1.41088L38.5526 0.775526M15.2794 14.1976V15.2691M15.2794 14.1976L14.5224 13.4407M15.2794 14.1976L16.0363 14.9567M15.2794 14.1976L15.2793 13.1261M15.2794 15.2691L14.5224 14.5122M15.2794 15.2691L16.0363 16.0261M15.2794 15.2691L15.2793 16.3406M14.5224 14.5122V13.4407M14.5224 14.5122V15.5837M14.5224 14.5122L13.7654 13.7552M14.5224 13.4407V12.3692M14.5224 13.4407L13.7654 12.6837M16.7954 13.5707V14.6422M16.7954 13.5707L16.0363 12.8137M16.7954 13.5707L21.3582 18.1356M16.7954 14.6422L16.0363 13.8852M16.7954 14.6422V15.7137M16.7954 14.6422L20.2867 18.1356M16.0363 13.8852V12.8137M16.0363 13.8852L15.2793 13.1261M16.0363 13.8852V14.9567M16.0363 12.8137L15.2793 12.0567M15.2793 13.1261V12.0567M15.2793 13.1261L14.5224 12.3692M15.2793 12.0567L14.5224 11.2976M14.5224 12.3692V11.2976M14.5224 12.3692L13.7654 11.6122M14.5224 11.2976L13.7654 10.5407M13.7654 11.6122V10.5407M13.7654 11.6122L5.19966 3.04854M13.7654 11.6122L13.7654 12.6837M13.7654 10.5407L6.27116 3.04854M14.5224 9.04376V1.37104M14.5224 9.04376L13.7654 8.28679V1.37104H14.5224M35.8434 3.04854L27.8396 11.0502M35.8434 3.04854H34.7719M35.8434 3.04854L36.6004 2.29157M27.8396 11.0502L27.3049 10.5155M27.3049 10.5155L34.7719 3.04854M27.3049 10.5155L26.7702 11.0502M27.3049 10.5155L19.838 3.04854M34.7719 3.04854L35.5289 2.29157M39.3095 18.8925V19.6495M39.3095 19.6495L39.3095 20.4065M16.938 2.29157L18.0095 2.29157M26.7702 11.0502L18.7665 3.04854M18.7665 3.04854H19.838M18.7665 3.04854L18.0095 2.29157M19.838 3.04854L19.081 2.29157M19.081 2.29157H18.0095M19.081 2.29157L18.324 1.5325M18.0095 2.29157L17.2525 1.5325M17.2525 1.5325H18.324M17.2525 1.5325L16.7954 1.07538M17.2525 1.5325H16.7954M18.324 1.5325L17.567 0.775526M16.7954 1.07538L16.7954 1.5325M14.5224 0.0185547V0.775527M14.5224 0.0185547H13.7654V0.188402M14.5224 0.775527H14.3525M14.3525 0.775527L13.7654 0.188402M14.3525 0.775527L13.7654 0.775527M13.7654 0.188402V0.775527M16.0363 3.53082L16.7954 4.28989M36.6004 2.29157H35.5289M36.6004 2.29157L37.3574 1.5325M35.5289 2.29157L36.2859 1.5325M37.3574 1.5325H36.2859M37.3574 1.5325L37.7956 1.09635M37.3574 1.5325H37.7956M36.2859 1.5325L37.0428 0.775526M37.7956 0.775526V1.09635M37.7956 0.775526H37.0428M37.7956 0.775526L38.1143 0.775527M37.7956 0.775526L37.7956 0.0248453M37.7956 1.09635L38.1143 0.775527M37.7956 1.09635L37.7956 1.5325M37.0428 0.775526L37.7956 0.0248453M38.1143 0.775527L38.5526 0.775526M40.0665 0.775527V0.0185547M40.0665 0.775527L40.0665 0.966342M3.37118 2.29157L4.4427 2.29157M3.37118 2.29157L4.12816 3.04854M5.19966 3.04854H6.27116M5.19966 3.04854L4.4427 2.29157M5.19966 3.04854L4.12816 3.04854M6.27116 3.04854L5.5142 2.29157M4.4427 2.29157H5.5142M4.4427 2.29157L3.68572 1.5325M5.5142 2.29157L4.75722 1.5325M3.68572 1.5325H4.75722M3.68572 1.5325L3.24956 1.09635M3.68572 1.5325H3.24956M4.75722 1.5325L3.99814 0.775526M3.24956 1.09635L3.24956 1.5325M16.7954 15.7137L16.0363 14.9567M16.7954 15.7137V16.7852M16.7954 15.7137L19.2152 18.1356M16.0363 14.9567L16.0363 16.0261M40.0665 37.5338V37.9154M40.0665 37.5338L39.687 37.5338M40.0665 37.9154L40.0665 38.2907M40.0665 37.9154L39.687 37.5338M37.7956 35.6424L23.3167 21.1655M16.0363 16.0261L16.7954 16.7852M16.0363 16.0261L16.0363 17.0976M16.7954 16.7852L18.1458 18.1356M16.7954 16.7852L16.7954 17.8567M19.2152 18.1356H18.1458M19.2152 18.1356L19.9743 18.8925M19.2152 18.1356H20.2867M18.1458 18.1356L18.9028 18.8925M18.1458 18.1356H17.0743M19.6597 19.6495H20.7312M19.6597 19.6495L18.9028 18.8925M19.6597 19.6495H18.5882M20.7312 19.6495L19.9743 18.8925M20.7312 19.6495H21.8027M18.9028 18.8925H19.9743M18.9028 18.8925H17.8312M19.9743 18.8925H21.0458M21.3582 18.1356H20.2867M21.3582 18.1356L22.1152 18.8925M20.2867 18.1356L21.0458 18.8925M23.3167 21.1655H24.3882M23.3167 21.1655L22.5597 20.4086M24.3882 21.1655L23.6312 20.4086M22.5597 20.4086H23.6312M22.5597 20.4086L21.8027 19.6495M23.6312 20.4086L22.8742 19.6495M21.8027 19.6495H22.8742M21.8027 19.6495L21.0458 18.8925M22.8742 19.6495L22.1152 18.8925M21.0458 18.8925H22.1152M39.3095 20.4086V21.1655M0.976552 0.0185547V0.775527M0.976552 0.775527L0.976562 0.966342M37.7956 38.2907H37.2294M37.7956 38.2907V38.8569M38.5526 39.0498H37.9885M38.5526 39.0498V39.6139M40.0665 38.2907H39.3724M40.0665 38.2907V38.9869M39.3724 38.2907L40.0665 38.9869M4.12816 3.04854L13.7654 12.6837M4.12816 3.04854L3.24956 3.04854M13.7654 12.6837L13.7654 13.7552M17.8312 18.8925L17.0743 18.1356M17.8312 18.8925L18.5882 19.6495M17.0743 18.1356L16.7954 17.8567M13.7654 13.7552V14.8267M13.7654 13.7552L3.24956 3.23936M13.7654 14.8267L14.5224 15.5837M3.24956 3.23936L3.05876 3.04854M3.24956 3.23936V3.04854M2.4905 3.04854H3.05876M3.05876 3.04854H3.24956M35.7155 36.7768L20.1042 21.1655M35.7155 36.7768L36.4725 37.5338M20.1042 21.1655L19.3473 20.4086M36.4725 37.5338L37.2294 38.2907M37.2294 38.2907L37.7956 38.8569M37.9885 39.0498L37.7956 38.8569M37.9885 39.0498L38.5526 39.6139M16.7954 17.8567L16.0363 17.0976M16.0363 17.0976L15.2793 16.3406M15.2793 16.3406L14.5224 15.5837M19.3473 20.4086L18.5882 19.6495M27.8395 12.1216L28.3747 11.5863L28.91 12.1216L28.3747 12.6569L27.8395 12.1216ZM27.3052 12.6572L27.8405 12.122L28.3757 12.6572L27.8405 13.1925L27.3052 12.6572ZM26.7682 13.1932L27.3034 12.6579L27.8387 13.1932L27.3034 13.7284L26.7682 13.1932ZM26.2339 12.6575L26.7691 12.1223L27.3044 12.6575L26.7691 13.1928L26.2339 12.6575ZM25.698 12.1205L26.2333 11.5852L26.7685 12.1205L26.2333 12.6557L25.698 12.1205ZM15.8363 36.7768H16.5933V37.5337H15.8363V36.7768ZM13.7671 22.0066H14.5671V39.7997H13.7671V22.0066ZM14.0422 21.64H16.5422V39.583H14.0422V21.64ZM14.5504 22.0066H15.3504V39.7997H14.5504V22.0066ZM16.0379 21.59H16.7962V39.8109H16.0379V21.59ZM15.8363 38.2907H16.5933V39.0477H15.8363V38.2907ZM15.8363 39.0498H16.5933V39.8068H15.8363V39.0498ZM26.7678 11.0504L27.3031 10.5151L27.8383 11.0504L27.3031 11.5856L26.7678 11.0504ZM26.768 12.1216L27.3032 11.5863L27.8385 12.1216L27.3032 12.6569L26.768 12.1216ZM25.1625 12.6578L25.6977 12.1226L26.233 12.6578L25.6977 13.1931L25.1625 12.6578ZM26.2341 13.729L26.7694 13.1937L27.3046 13.729L26.7694 14.2643L26.2341 13.729ZM26.2336 11.586L26.7689 11.0508L27.3041 11.586L26.7689 12.1213L26.2336 11.586ZM27.3051 11.5859L27.8404 11.0507L28.3756 11.5859L27.8404 12.1212L27.3051 11.5859ZM25.6983 13.1918L26.2335 12.6566L26.7688 13.1918L26.2335 13.7271L25.6983 13.1918ZM26.7684 14.2646L27.3037 13.7294L27.8389 14.2646L27.3037 14.7999L26.7684 14.2646ZM27.3054 13.7288L27.8407 13.1935L28.3759 13.7288L27.8407 14.264L27.3054 13.7288ZM27.8395 13.1929L28.3748 12.6576L28.9101 13.1929L28.3748 13.7281L27.8395 13.1929ZM28.3767 12.6572L28.912 12.122L29.4472 12.6572L28.912 13.1925L28.3767 12.6572ZM15.8363 37.5317H16.5933V38.2886H15.8363V37.5317Z" stroke="white" stroke-width="0.0209688" stroke-miterlimit="10"/>
</svg>
