<svg width="115" height="30" viewBox="0 0 115 30" fill="none" xmlns="http://www.w3.org/2000/svg">
<path d="M27.0516 29.5H16.2516L7.49156 9.38H7.33156C7.33156 9.38 7.3449 9.62 7.37156 10.1C7.39823 10.5533 7.43823 11.1533 7.49156 11.9C7.5449 12.6467 7.5849 13.4467 7.61156 14.3C7.6649 15.1267 7.69156 15.9 7.69156 16.62V29.5H0.491562V0.939998H11.2516L19.9716 20.78H20.0916C20.0916 20.78 20.0782 20.5533 20.0516 20.1C20.0249 19.6467 19.9849 19.06 19.9316 18.34C19.9049 17.62 19.8782 16.86 19.8516 16.06C19.8249 15.26 19.8116 14.5267 19.8116 13.86V0.939998H27.0516V29.5ZM52.9275 7.38V29.5H46.8875L45.8875 26.74H45.4075C44.9808 27.4867 44.4342 28.1 43.7675 28.58C43.1275 29.0333 42.4075 29.3667 41.6075 29.58C40.8342 29.7933 40.0342 29.9 39.2075 29.9C37.8742 29.9 36.6608 29.62 35.5675 29.06C34.4742 28.5 33.5942 27.62 32.9275 26.42C32.2608 25.22 31.9275 23.6733 31.9275 21.78V7.38H40.0075V19.46C40.0075 20.9 40.1542 21.9933 40.4475 22.74C40.7408 23.4867 41.2608 23.86 42.0075 23.86C42.7808 23.86 43.3675 23.6067 43.7675 23.1C44.1942 22.5667 44.4742 21.7933 44.6075 20.78C44.7675 19.7667 44.8475 18.5267 44.8475 17.06V7.38H52.9275ZM69.9163 29.5L64.7563 8.54H64.5963C64.6496 9.07333 64.7029 9.79333 64.7563 10.7C64.8096 11.6067 64.8629 12.5933 64.9163 13.66C64.9696 14.7 64.9963 15.7133 64.9963 16.7V29.5H57.7962V0.939998H69.5163L73.7163 18.54H73.8363L77.7163 0.939998H89.4363V29.5H81.9963V16.58C81.9963 15.6733 82.0096 14.7133 82.0363 13.7C82.0629 12.66 82.0896 11.6867 82.1163 10.78C82.1696 9.84667 82.2229 9.11333 82.2763 8.58H82.1163L77.3563 29.5H69.9163ZM104.19 6.98C106.27 6.98 108.07 7.35333 109.59 8.1C111.11 8.84667 112.27 9.96667 113.07 11.46C113.897 12.9533 114.31 14.8333 114.31 17.1V20.5H101.75C101.804 21.6467 102.164 22.5933 102.83 23.34C103.524 24.0867 104.564 24.46 105.95 24.46C107.257 24.46 108.444 24.3267 109.51 24.06C110.604 23.7933 111.724 23.3667 112.87 22.78V28.26C111.884 28.82 110.764 29.2333 109.51 29.5C108.284 29.7667 106.697 29.9 104.75 29.9C102.644 29.9 100.75 29.5133 99.0703 28.74C97.3903 27.94 96.057 26.7 95.0703 25.02C94.0836 23.34 93.5903 21.1933 93.5903 18.58C93.5903 15.9133 94.0303 13.7267 94.9103 12.02C95.817 10.3133 97.057 9.04667 98.6303 8.22C100.23 7.39333 102.084 6.98 104.19 6.98ZM104.55 12.18C103.83 12.18 103.23 12.46 102.75 13.02C102.27 13.58 101.99 14.4733 101.91 15.7H107.11C107.11 15.0333 107.004 14.4467 106.79 13.94C106.577 13.4067 106.284 12.98 105.91 12.66C105.537 12.34 105.084 12.18 104.55 12.18Z" fill="white"/>
</svg>
