<svg width="58" height="15" viewBox="0 0 58 15" fill="none" xmlns="http://www.w3.org/2000/svg">
<path d="M14.0238 14.3423H8.62383L4.24383 4.28225H4.16383C4.16383 4.28225 4.1705 4.40225 4.18383 4.64225C4.19716 4.86892 4.21716 5.16892 4.24383 5.54225C4.2705 5.91558 4.2905 6.31558 4.30383 6.74225C4.3305 7.15558 4.34383 7.54225 4.34383 7.90225V14.3423H0.743829V0.0622469H6.12383L10.4838 9.98225H10.5438C10.5438 9.98225 10.5372 9.86892 10.5238 9.64225C10.5105 9.41559 10.4905 9.12225 10.4638 8.76225C10.4505 8.40225 10.4372 8.02225 10.4238 7.62225C10.4105 7.22225 10.4038 6.85558 10.4038 6.52225V0.0622469H14.0238V14.3423ZM26.9618 3.28225V14.3423H23.9418L23.4418 12.9623H23.2018C22.9885 13.3356 22.7151 13.6423 22.3818 13.8823C22.0618 14.1089 21.7018 14.2756 21.3018 14.3823C20.9151 14.4889 20.5151 14.5423 20.1018 14.5423C19.4351 14.5423 18.8285 14.4023 18.2818 14.1223C17.7351 13.8423 17.2951 13.4023 16.9618 12.8023C16.6285 12.2023 16.4618 11.4289 16.4618 10.4823V3.28225H20.5018V9.32225C20.5018 10.0423 20.5751 10.5889 20.7218 10.9623C20.8685 11.3356 21.1285 11.5223 21.5018 11.5223C21.8885 11.5223 22.1818 11.3956 22.3818 11.1423C22.5951 10.8756 22.7351 10.4889 22.8018 9.98225C22.8818 9.47559 22.9218 8.85559 22.9218 8.12225V3.28225H26.9618ZM35.4562 14.3423L32.8762 3.86225H32.7962C32.8229 4.12892 32.8495 4.48892 32.8762 4.94225C32.9029 5.39558 32.9295 5.88892 32.9562 6.42225C32.9829 6.94225 32.9962 7.44892 32.9962 7.94225V14.3423H29.3962V0.0622469H35.2562L37.3562 8.86225H37.4162L39.3562 0.0622469H45.2162V14.3423H41.4962V7.88225C41.4962 7.42892 41.5029 6.94892 41.5162 6.44225C41.5295 5.92225 41.5429 5.43558 41.5562 4.98225C41.5829 4.51558 41.6095 4.14892 41.6362 3.88225H41.5562L39.1762 14.3423H35.4562ZM52.5932 3.08225C53.6332 3.08225 54.5332 3.26892 55.2932 3.64225C56.0532 4.01558 56.6332 4.57558 57.0332 5.32225C57.4466 6.06892 57.6532 7.00892 57.6532 8.14225V9.84225H51.3732C51.3999 10.4156 51.5799 10.8889 51.9132 11.2623C52.2599 11.6356 52.7799 11.8223 53.4732 11.8223C54.1266 11.8223 54.7199 11.7556 55.2532 11.6223C55.7999 11.4889 56.3599 11.2756 56.9332 10.9823V13.7223C56.4399 14.0023 55.8799 14.2089 55.2532 14.3423C54.6399 14.4756 53.8466 14.5423 52.8732 14.5423C51.8199 14.5423 50.8732 14.3489 50.0332 13.9623C49.1932 13.5623 48.5266 12.9423 48.0332 12.1023C47.5399 11.2623 47.2932 10.1889 47.2932 8.88225C47.2932 7.54892 47.5132 6.45558 47.9532 5.60225C48.4066 4.74892 49.0266 4.11558 49.8132 3.70225C50.6132 3.28892 51.5399 3.08225 52.5932 3.08225ZM52.7732 5.68225C52.4132 5.68225 52.1132 5.82225 51.8732 6.10225C51.6332 6.38225 51.4932 6.82892 51.4532 7.44225H54.0532C54.0532 7.10892 53.9999 6.81558 53.8932 6.56225C53.7866 6.29558 53.6399 6.08225 53.4532 5.92225C53.2666 5.76225 53.0399 5.68225 52.7732 5.68225Z" fill="white"/>
</svg>
