<svg width="165" height="140" viewBox="0 0 165 140" fill="none" xmlns="http://www.w3.org/2000/svg">
<g id="Frame" clip-path="url(#clip0_1253_221)">
<g id="Group">
<path id="Vector" d="M62.1137 95.7647C63.1172 103.481 67.0785 110.298 73.2052 115.002C79.332 119.706 86.9904 121.767 94.6489 120.763C102.36 119.759 109.174 115.795 113.874 109.664L158.98 50.8949C163.681 44.7643 165.74 37.101 164.737 29.4377C163.733 21.7216 159.772 14.904 153.645 10.2003C149.156 6.71218 143.821 4.70388 138.328 4.28108C136.321 4.12253 134.262 4.17538 132.202 4.43963C124.49 5.44378 117.677 9.40754 112.976 15.5382L67.8707 74.3075C63.17 80.4381 61.1102 88.0485 62.1137 95.7647ZM131.726 76.5801L109.174 105.965C105.424 110.827 100.036 113.998 93.9095 114.791C87.8355 115.583 81.7616 113.945 76.9024 110.246C72.0433 106.493 68.8742 101.103 68.082 94.9719C67.2897 88.8941 68.9271 82.8164 72.6242 77.9542L95.1771 48.5695L131.726 76.5801Z" fill="#41A17E"/>
<g id="Group_2">
<path id="Vector_2" d="M66.2337 10.1475C54.9837 -1.63811 36.445 -3.54071 22.9767 6.39511C9.45553 16.2781 5.70553 34.5114 13.5224 48.7809L66.2337 10.1475Z" fill="#333534"/>
<path id="Vector_3" d="M71.3558 17.1768L18.6445 55.8102C29.8945 67.5958 48.4333 69.4984 61.9016 59.6154C75.4227 49.6796 79.1727 31.4463 71.3558 17.1768Z" fill="#333534"/>
</g>
<g id="Group_3">
<path id="Vector_4" d="M4.59655 100.574C-2.53374 110.669 -1.26613 124.727 8.02964 133.394C17.3254 142.009 31.4804 142.22 40.9874 134.293L4.59655 100.574Z" fill="#333534"/>
<path id="Vector_5" d="M9.0332 95.7119L45.4241 129.43C52.5543 119.336 51.2867 105.278 41.991 96.6104C32.6952 87.943 18.5402 87.8373 9.0332 95.7119Z" fill="#333534"/>
</g>
</g>
</g>
<defs>
<clipPath id="clip0_1253_221">
<rect width="165" height="140" fill="white"/>
</clipPath>
</defs>
</svg>
