<svg width="242" height="146" viewBox="0 0 242 146" fill="none" xmlns="http://www.w3.org/2000/svg">
<g id="Frame 48097420">
<g id="Group 2176">
<g id="XMLID_31_">
<path id="XMLID_32_" d="M108.669 146H47.715C21.3476 146 0 124.59 0 98.146C0 71.7018 21.3476 50.292 47.715 50.292H108.669C135.036 50.292 156.384 71.7018 156.384 98.146C156.384 124.59 135.036 146 108.669 146Z" fill="#C3C4C3"/>
</g>
<g id="XMLID_29_">
<path id="XMLID_30_" d="M47.7147 129.569C30.4491 129.569 16.3828 115.462 16.3828 98.1459C16.3828 80.8299 30.4491 66.7227 47.7147 66.7227H108.669C125.934 66.7227 140.001 80.8299 140.001 98.1459C140.001 115.462 125.934 129.569 108.669 129.569H47.7147Z" fill="white"/>
</g>
<g id="XMLID_27_">
<path id="XMLID_28_" d="M47.7161 122.211C34.4773 122.211 23.7207 111.423 23.7207 98.1459C23.7207 84.8685 34.4773 74.0806 47.7161 74.0806H108.67C121.909 74.0806 132.665 84.8685 132.665 98.1459C132.665 111.423 121.909 122.211 108.67 122.211H47.7161Z" fill="#333534"/>
</g>
<g id="XMLID_25_">
<path id="XMLID_26_" d="M40.1024 107.993C45.6775 107.993 50.197 103.461 50.197 97.8694C50.197 92.278 45.6775 87.7454 40.1024 87.7454C34.5273 87.7454 30.0078 92.278 30.0078 97.8694C30.0078 103.461 34.5273 107.993 40.1024 107.993Z" fill="#41A17E"/>
</g>
<g id="XMLID_23_">
<path id="XMLID_24_" d="M115.729 107.993C121.304 107.993 125.824 103.461 125.824 97.8694C125.824 92.278 121.304 87.7454 115.729 87.7454C110.154 87.7454 105.635 92.278 105.635 97.8694C105.635 103.461 110.154 107.993 115.729 107.993Z" fill="#41A17E"/>
</g>
<g id="XMLID_21_">
<path id="XMLID_22_" d="M91.6234 107.108H64.1528C62.9944 107.108 62.0566 106.168 62.0566 105.006C62.0566 103.844 62.9944 102.904 64.1528 102.904H91.6234C92.7818 102.904 93.7195 103.844 93.7195 105.006C93.7747 106.113 92.837 107.108 91.6234 107.108Z" fill="#41A17E"/>
</g>
<g id="XMLID_9_">
<g id="XMLID_10_">
<path id="XMLID_19_" d="M204.434 0H166.262C149.769 0 136.42 13.3881 136.42 29.9295C136.42 45.8624 148.225 58.9185 163.891 59.8037L174.04 69.983V59.859H204.434C220.928 59.859 234.277 46.4709 234.277 29.9295C234.277 13.3881 220.928 0 204.434 0Z" fill="#333534"/>
<g id="XMLID_11_">
<path id="XMLID_15_" d="M185.791 27.6614H162.789C161.575 27.6614 160.582 26.6656 160.582 25.4485C160.582 24.2314 161.575 23.2356 162.789 23.2356H185.791C187.005 23.2356 187.997 24.2314 187.997 25.4485C187.942 26.7209 187.005 27.6614 185.791 27.6614Z" fill="#F5F5F5"/>
<path id="XMLID_14_" d="M208.628 27.6614H194.396C193.182 27.6614 192.189 26.6656 192.189 25.4485C192.189 24.2314 193.182 23.2356 194.396 23.2356H208.628C209.841 23.2356 210.834 24.2314 210.834 25.4485C210.834 26.7209 209.841 27.6614 208.628 27.6614Z" fill="#F5F5F5"/>
<path id="XMLID_13_" d="M194.672 35.7385H162.789C161.575 35.7385 160.582 34.7427 160.582 33.5256C160.582 32.3085 161.575 31.3127 162.789 31.3127H194.672C195.886 31.3127 196.879 32.3085 196.879 33.5256C196.823 34.7427 195.886 35.7385 194.672 35.7385Z" fill="#F5F5F5"/>
<path id="XMLID_12_" d="M208.628 35.7385H203.718C202.505 35.7385 201.512 34.7427 201.512 33.5256C201.512 32.3085 202.505 31.3127 203.718 31.3127H208.628C209.841 31.3127 210.834 32.3085 210.834 33.5256C210.834 34.7427 209.841 35.7385 208.628 35.7385Z" fill="#F5F5F5"/>
</g>
</g>
</g>
<g id="XMLID_1_">
<g id="XMLID_2_">
<path id="XMLID_7_" d="M228.816 49.1821H202.007C194.781 49.1821 188.879 55.1016 188.879 62.3489C188.879 69.5961 194.781 75.5157 202.007 75.5157H220.266V84.0907L228.816 75.5157H228.871C236.097 75.5157 242 69.5961 242 62.3489C241.945 55.1016 236.042 49.1821 228.816 49.1821Z" fill="#41A17E"/>
<g id="XMLID_3_">
<path id="XMLID_6_" d="M219.053 61.1873H201.401C200.463 61.1873 199.746 60.4128 199.746 59.5276C199.746 58.5871 200.518 57.8679 201.401 57.8679H219.053C219.99 57.8679 220.708 58.6424 220.708 59.5276C220.763 60.4128 219.99 61.1873 219.053 61.1873Z" fill="white"/>
<path id="XMLID_5_" d="M225.893 67.3833H201.401C200.463 67.3833 199.746 66.6088 199.746 65.7236C199.746 64.7832 200.518 64.064 201.401 64.064H225.893C226.831 64.064 227.548 64.8385 227.548 65.7236C227.603 66.6088 226.831 67.3833 225.893 67.3833Z" fill="white"/>
<path id="XMLID_4_" d="M229.478 61.1873H225.727C224.789 61.1873 224.072 60.4128 224.072 59.5276C224.072 58.5871 224.845 57.8679 225.727 57.8679H229.478C230.416 57.8679 231.133 58.6424 231.133 59.5276C231.133 60.4128 230.416 61.1873 229.478 61.1873Z" fill="white"/>
</g>
</g>
</g>
</g>
</g>
</svg>
