<svg width="24" height="25" viewBox="0 0 24 25" fill="none" xmlns="http://www.w3.org/2000/svg">
<g id="vuesax/linear/star">
<g id="vuesax/linear/star_2">
<g id="star">
<path id="Vector" d="M13.7309 3.8523L15.4909 7.3723C15.7309 7.8623 16.3709 8.3323 16.9109 8.4223L20.1009 8.9523C22.1409 9.2923 22.6209 10.7723 21.1509 12.2323L18.6709 14.7123C18.2509 15.1323 18.0209 15.9423 18.1509 16.5223L18.8609 19.5923C19.4209 22.0223 18.1309 22.9623 15.9809 21.6923L12.9909 19.9223C12.4509 19.6023 11.5609 19.6023 11.0109 19.9223L8.02089 21.6923C5.88089 22.9623 4.58089 22.0123 5.14089 19.5923L5.85089 16.5223C5.98089 15.9423 5.75089 15.1323 5.33089 14.7123L2.85089 12.2323C1.39089 10.7723 1.86089 9.2923 3.90089 8.9523L7.09089 8.4223C7.62089 8.3323 8.26089 7.8623 8.50089 7.3723L10.2609 3.8523C11.2209 1.9423 12.7809 1.9423 13.7309 3.8523Z" fill="#FBD13D"/>
</g>
</g>
</g>
</svg>
