<svg width="42" height="42" viewBox="0 0 42 42" fill="none" xmlns="http://www.w3.org/2000/svg">
<g id="Group">
<g id="Group_2">
<path id="XMLID_19_" d="M20.998 41.3423C9.96356 41.3423 0.998047 32.3768 0.998047 21.3423C0.998047 10.3078 9.96356 1.34229 20.998 1.34229C32.0325 1.34229 40.998 10.3078 40.998 21.3423C40.998 32.3768 32.0325 41.3423 20.998 41.3423Z" stroke="#505151" stroke-miterlimit="10"/>
</g>
<path id="XMLID_18_" d="M11.5156 28.0664C13.2398 29.1871 15.3087 29.7905 17.4639 29.7905C24.7053 29.7905 28.757 23.6698 28.4984 18.2388C29.2742 17.7215 29.8777 17.0319 30.3949 16.256C29.7053 16.6008 28.9294 16.7733 28.1536 16.8595C28.9294 16.3422 29.5329 15.6526 29.8777 14.7043C29.1018 15.1353 28.326 15.4802 27.3777 15.6526C26.688 14.8767 25.6536 14.4457 24.5329 14.4457C22.0329 14.4457 20.2225 16.7733 20.7398 19.1871C17.5501 19.0146 14.6191 17.4629 12.7225 15.1353C11.688 16.8595 12.2053 19.1871 13.9294 20.3077C13.326 20.3077 12.7225 20.1353 12.2053 19.7905C12.2053 21.6008 13.4122 23.2388 15.3087 23.6698C14.7915 23.8422 14.188 23.8422 13.5846 23.756C14.1018 25.3077 15.4811 26.4284 17.2053 26.4284C15.6536 27.7215 13.5846 28.2388 11.5156 28.0664Z" fill="#F1F1F1"/>
</g>
</svg>
